G04 #@! TF.GenerationSoftware,KiCad,Pcbnew,6.0.0-d3dd2cf0fa~116~ubuntu20.04.1*
G04 #@! TF.CreationDate,2022-01-09T15:49:13-07:00*
G04 #@! TF.ProjectId,software_dev_board,736f6674-7761-4726-955f-6465765f626f,A*
G04 #@! TF.SameCoordinates,Original*
G04 #@! TF.FileFunction,Soldermask,Bot*
G04 #@! TF.FilePolarity,Negative*
%FSLAX46Y46*%
G04 Gerber Fmt 4.6, Leading zero omitted, Abs format (unit mm)*
G04 Created by KiCad (PCBNEW 6.0.0-d3dd2cf0fa~116~ubuntu20.04.1) date 2022-01-09 15:49:13*
%MOMM*%
%LPD*%
G01*
G04 APERTURE LIST*
G04 Aperture macros list*
%AMRoundRect*
0 Rectangle with rounded corners*
0 $1 Rounding radius*
0 $2 $3 $4 $5 $6 $7 $8 $9 X,Y pos of 4 corners*
0 Add a 4 corners polygon primitive as box body*
4,1,4,$2,$3,$4,$5,$6,$7,$8,$9,$2,$3,0*
0 Add four circle primitives for the rounded corners*
1,1,$1+$1,$2,$3*
1,1,$1+$1,$4,$5*
1,1,$1+$1,$6,$7*
1,1,$1+$1,$8,$9*
0 Add four rect primitives between the rounded corners*
20,1,$1+$1,$2,$3,$4,$5,0*
20,1,$1+$1,$4,$5,$6,$7,0*
20,1,$1+$1,$6,$7,$8,$9,0*
20,1,$1+$1,$8,$9,$2,$3,0*%
G04 Aperture macros list end*
%ADD10C,1.500000*%
%ADD11R,1.700000X1.700000*%
%ADD12O,1.700000X1.700000*%
%ADD13R,1.500000X2.300000*%
%ADD14O,1.500000X2.300000*%
%ADD15C,0.800000*%
%ADD16C,6.400000*%
%ADD17O,1.550000X0.890000*%
%ADD18O,0.950000X1.250000*%
%ADD19C,3.000000*%
%ADD20RoundRect,0.250000X-0.500000X0.500000X-0.500000X-0.500000X0.500000X-0.500000X0.500000X0.500000X0*%
%ADD21RoundRect,0.250001X-1.599999X1.099999X-1.599999X-1.099999X1.599999X-1.099999X1.599999X1.099999X0*%
%ADD22O,3.700000X2.700000*%
%ADD23C,0.600000*%
G04 APERTURE END LIST*
D10*
X134300000Y-104600000D03*
X138700000Y-104600000D03*
X136500000Y-104600000D03*
X140900000Y-104700000D03*
X132100000Y-104600000D03*
D11*
X148400000Y-74200000D03*
D12*
X145860000Y-74200000D03*
X143320000Y-74200000D03*
X140780000Y-74200000D03*
X138240000Y-74200000D03*
X135700000Y-74200000D03*
X133160000Y-74200000D03*
X130620000Y-74200000D03*
X128080000Y-74200000D03*
D10*
X156174000Y-92380000D03*
X156174000Y-87500000D03*
D13*
X151760000Y-117958000D03*
D14*
X149220000Y-117958000D03*
X146680000Y-117958000D03*
D10*
X126326000Y-101777999D03*
X121446000Y-101777999D03*
D15*
X105697056Y-78097056D03*
X101600000Y-76400000D03*
X105697056Y-74702944D03*
X102302944Y-74702944D03*
D16*
X104000000Y-76400000D03*
D15*
X102302944Y-78097056D03*
X104000000Y-78800000D03*
X106400000Y-76400000D03*
X104000000Y-74000000D03*
D16*
X179000000Y-76400000D03*
D15*
X179000000Y-78800000D03*
X177302944Y-74702944D03*
X180697056Y-78097056D03*
X181400000Y-76400000D03*
X177302944Y-78097056D03*
X180697056Y-74702944D03*
X179000000Y-74000000D03*
X176600000Y-76400000D03*
D17*
X101500000Y-88300000D03*
D18*
X104200000Y-82300000D03*
X104200000Y-87300000D03*
D17*
X101500000Y-81300000D03*
D15*
X180697056Y-123097056D03*
X180697056Y-119702944D03*
X177302944Y-123097056D03*
X179000000Y-123800000D03*
X176600000Y-121400000D03*
X181400000Y-121400000D03*
X179000000Y-119000000D03*
D16*
X179000000Y-121400000D03*
D15*
X177302944Y-119702944D03*
D11*
X119914000Y-122874000D03*
D12*
X119914000Y-120334000D03*
X119914000Y-117794000D03*
D11*
X114326000Y-122874000D03*
D12*
X114326000Y-120334000D03*
X114326000Y-117794000D03*
D15*
X105697056Y-119702944D03*
X105697056Y-123097056D03*
X102302944Y-123097056D03*
X104000000Y-119000000D03*
X102302944Y-119702944D03*
X104000000Y-123800000D03*
D16*
X104000000Y-121400000D03*
D15*
X101600000Y-121400000D03*
X106400000Y-121400000D03*
D19*
X178220000Y-94100000D03*
D20*
X173900000Y-91100000D03*
D10*
X173900000Y-94100000D03*
X173900000Y-97100000D03*
X170900000Y-91100000D03*
X170900000Y-94100000D03*
X170900000Y-97100000D03*
X164500000Y-90000000D03*
X164500000Y-95200000D03*
X124600000Y-80800000D03*
D19*
X176200000Y-104600000D03*
D21*
X168900000Y-104600000D03*
D22*
X163400000Y-104600000D03*
D23*
X130610000Y-97010000D03*
D15*
X111800000Y-106100000D03*
D23*
X124843159Y-97700000D03*
X155800000Y-115700000D03*
X112200000Y-84500000D03*
X179100000Y-114500000D03*
X125400000Y-98300000D03*
D15*
X168100000Y-96100000D03*
D23*
X177700000Y-117300000D03*
X151400000Y-99700000D03*
X120000000Y-78800000D03*
X156700000Y-106300000D03*
X113100000Y-96800000D03*
X130500000Y-99500000D03*
X137000000Y-122100000D03*
D15*
X168164000Y-89064000D03*
D23*
X179800000Y-117300000D03*
X135500000Y-123500000D03*
X141800000Y-123700000D03*
X117000000Y-75600000D03*
X164000000Y-124400000D03*
D15*
X102400000Y-100100000D03*
D23*
X150000000Y-113400000D03*
X136100000Y-101200000D03*
X180500000Y-117300000D03*
X136200000Y-123500000D03*
X139600000Y-123700000D03*
X180500000Y-114500000D03*
X166800000Y-114700000D03*
X134800000Y-123500000D03*
X118500000Y-105600000D03*
X158100000Y-124400000D03*
X125700000Y-122000000D03*
X133900000Y-101200000D03*
X152300000Y-88100000D03*
X119900000Y-96700000D03*
X177000000Y-114500000D03*
X177000000Y-117300000D03*
X179800000Y-114500000D03*
X178400000Y-117300000D03*
X113900000Y-113400000D03*
X166800000Y-115400000D03*
X127700000Y-78400000D03*
X166800000Y-114000000D03*
X161000000Y-124400000D03*
X160300000Y-99700000D03*
X168200000Y-114000000D03*
X137000000Y-123500000D03*
X178400000Y-114500000D03*
X132700000Y-99500000D03*
X137900000Y-120200000D03*
X103700000Y-115100000D03*
X140700000Y-124700000D03*
X137000000Y-121400000D03*
X129100000Y-105600000D03*
X111700000Y-115200000D03*
X167500000Y-114000000D03*
X134600000Y-94900000D03*
X112800000Y-75200000D03*
X160000000Y-95200000D03*
X137000000Y-122800000D03*
X177700000Y-114500000D03*
X121500000Y-81800000D03*
X179100000Y-117300000D03*
X137900000Y-99800000D03*
D15*
X102400000Y-98800000D03*
D23*
X134100000Y-87300000D03*
X116500000Y-93300000D03*
D15*
X102400000Y-102700000D03*
D23*
X160000000Y-84600000D03*
X161000000Y-116500000D03*
D15*
X147561500Y-106161500D03*
X126700000Y-118000000D03*
X124100000Y-116000000D03*
D23*
X123400000Y-73800000D03*
D15*
X108900000Y-91800000D03*
X123100000Y-117100000D03*
D23*
X107300000Y-73500000D03*
X111000000Y-73500000D03*
X116500000Y-94800000D03*
X119900000Y-81700000D03*
X158100000Y-116500000D03*
X137900000Y-98200000D03*
X134100000Y-85700000D03*
D15*
X126700000Y-118900000D03*
X123100000Y-118000000D03*
X126700000Y-116200000D03*
D23*
X134600000Y-93900000D03*
X136200000Y-99600000D03*
D15*
X123100000Y-118900000D03*
X126700000Y-117100000D03*
X125700000Y-116000000D03*
X113413173Y-106113173D03*
D23*
X158300000Y-106300000D03*
D15*
X123100000Y-116200000D03*
D23*
X136200000Y-98000000D03*
D15*
X108900000Y-90000000D03*
D23*
X122480447Y-83300000D03*
X112900000Y-95700000D03*
X110400000Y-97600000D03*
X112100000Y-102400000D03*
X117996790Y-89703210D03*
D15*
X106244500Y-82344500D03*
X135500000Y-110500000D03*
D23*
X111500000Y-77900000D03*
X137300000Y-95700000D03*
X138330331Y-91869669D03*
X135600000Y-92700000D03*
X138700000Y-94400000D03*
X138500000Y-93100000D03*
X152300000Y-94400000D03*
X136600000Y-89053210D03*
X117100000Y-100300000D03*
X136600000Y-88253207D03*
X152300000Y-93100000D03*
X136600000Y-87453204D03*
X152300000Y-91900000D03*
X152300000Y-97000000D03*
X152300000Y-103400000D03*
X113100000Y-80300000D03*
X115300000Y-89300000D03*
X116100000Y-88600000D03*
X114800000Y-80600000D03*
X121000000Y-78800000D03*
X116900000Y-87900000D03*
X115600000Y-92200000D03*
X115600000Y-101300000D03*
M02*
