G04 #@! TF.GenerationSoftware,KiCad,Pcbnew,6.0.0-d3dd2cf0fa~116~ubuntu20.04.1*
G04 #@! TF.CreationDate,2022-01-09T15:49:13-07:00*
G04 #@! TF.ProjectId,software_dev_board,736f6674-7761-4726-955f-6465765f626f,A*
G04 #@! TF.SameCoordinates,Original*
G04 #@! TF.FileFunction,Paste,Top*
G04 #@! TF.FilePolarity,Positive*
%FSLAX46Y46*%
G04 Gerber Fmt 4.6, Leading zero omitted, Abs format (unit mm)*
G04 Created by KiCad (PCBNEW 6.0.0-d3dd2cf0fa~116~ubuntu20.04.1) date 2022-01-09 15:49:13*
%MOMM*%
%LPD*%
G01*
G04 APERTURE LIST*
G04 Aperture macros list*
%AMRoundRect*
0 Rectangle with rounded corners*
0 $1 Rounding radius*
0 $2 $3 $4 $5 $6 $7 $8 $9 X,Y pos of 4 corners*
0 Add a 4 corners polygon primitive as box body*
4,1,4,$2,$3,$4,$5,$6,$7,$8,$9,$2,$3,0*
0 Add four circle primitives for the rounded corners*
1,1,$1+$1,$2,$3*
1,1,$1+$1,$4,$5*
1,1,$1+$1,$6,$7*
1,1,$1+$1,$8,$9*
0 Add four rect primitives between the rounded corners*
20,1,$1+$1,$2,$3,$4,$5,0*
20,1,$1+$1,$4,$5,$6,$7,0*
20,1,$1+$1,$6,$7,$8,$9,0*
20,1,$1+$1,$8,$9,$2,$3,0*%
G04 Aperture macros list end*
%ADD10RoundRect,0.225000X0.250000X-0.225000X0.250000X0.225000X-0.250000X0.225000X-0.250000X-0.225000X0*%
%ADD11RoundRect,0.225000X-0.250000X0.225000X-0.250000X-0.225000X0.250000X-0.225000X0.250000X0.225000X0*%
%ADD12RoundRect,0.225000X0.225000X0.250000X-0.225000X0.250000X-0.225000X-0.250000X0.225000X-0.250000X0*%
%ADD13RoundRect,0.225000X-0.225000X-0.250000X0.225000X-0.250000X0.225000X0.250000X-0.225000X0.250000X0*%
%ADD14RoundRect,0.237500X0.237500X-0.287500X0.237500X0.287500X-0.237500X0.287500X-0.237500X-0.287500X0*%
%ADD15R,2.770000X0.740000*%
%ADD16RoundRect,0.200000X0.275000X-0.200000X0.275000X0.200000X-0.275000X0.200000X-0.275000X-0.200000X0*%
%ADD17RoundRect,0.200000X-0.275000X0.200000X-0.275000X-0.200000X0.275000X-0.200000X0.275000X0.200000X0*%
%ADD18R,2.000000X1.500000*%
%ADD19R,2.000000X3.800000*%
%ADD20R,2.540000X2.670000*%
%ADD21R,1.270000X0.762000*%
%ADD22RoundRect,0.075000X0.075000X-0.700000X0.075000X0.700000X-0.075000X0.700000X-0.075000X-0.700000X0*%
%ADD23RoundRect,0.075000X0.700000X-0.075000X0.700000X0.075000X-0.700000X0.075000X-0.700000X-0.075000X0*%
%ADD24RoundRect,0.150000X0.875000X0.150000X-0.875000X0.150000X-0.875000X-0.150000X0.875000X-0.150000X0*%
%ADD25R,1.560000X0.650000*%
%ADD26R,0.650000X1.560000*%
%ADD27RoundRect,0.218750X-0.218750X-0.256250X0.218750X-0.256250X0.218750X0.256250X-0.218750X0.256250X0*%
%ADD28O,1.550000X0.890000*%
%ADD29O,0.950000X1.250000*%
%ADD30R,1.350000X0.400000*%
%ADD31R,1.550000X1.200000*%
%ADD32R,1.550000X1.500000*%
%ADD33R,2.670000X2.540000*%
%ADD34R,0.762000X1.270000*%
%ADD35R,1.550000X1.300000*%
%ADD36RoundRect,0.200000X0.200000X0.275000X-0.200000X0.275000X-0.200000X-0.275000X0.200000X-0.275000X0*%
%ADD37R,1.000000X1.000000*%
%ADD38RoundRect,0.150000X-0.825000X-0.150000X0.825000X-0.150000X0.825000X0.150000X-0.825000X0.150000X0*%
%ADD39R,0.900000X0.800000*%
%ADD40R,3.500000X1.800000*%
%ADD41R,4.240000X3.810000*%
%ADD42R,0.800000X0.550000*%
%ADD43R,0.450000X0.700000*%
%ADD44RoundRect,0.200000X-0.200000X-0.275000X0.200000X-0.275000X0.200000X0.275000X-0.200000X0.275000X0*%
G04 APERTURE END LIST*
D10*
X159984000Y-93917000D03*
X159984000Y-92367000D03*
D11*
X159984000Y-85763000D03*
X159984000Y-87313000D03*
D12*
X126469420Y-105601671D03*
X128019420Y-105601671D03*
D10*
X151398000Y-102325000D03*
X151398000Y-100775000D03*
D13*
X156719000Y-105106000D03*
X158269000Y-105106000D03*
D11*
X139000000Y-98225000D03*
X139000000Y-99775000D03*
X137898000Y-117573000D03*
X137898000Y-119123000D03*
X126800000Y-120425000D03*
X126800000Y-121975000D03*
D13*
X153225000Y-114700000D03*
X154775000Y-114700000D03*
D12*
X151519000Y-114656000D03*
X149969000Y-114656000D03*
D14*
X161034000Y-123159000D03*
X161034000Y-121409000D03*
X158082000Y-123159000D03*
X158082000Y-121409000D03*
D15*
X104468000Y-97560000D03*
X108368000Y-97560000D03*
X104468000Y-98830000D03*
X108368000Y-98830000D03*
X104468000Y-100100000D03*
X108368000Y-100100000D03*
X104468000Y-101370000D03*
X108368000Y-101370000D03*
X104468000Y-102640000D03*
X108368000Y-102640000D03*
D16*
X111490000Y-80625000D03*
X111490000Y-78975000D03*
X111490000Y-76845000D03*
X111490000Y-75195000D03*
D17*
X163986000Y-117649000D03*
X163986000Y-119299000D03*
X161034000Y-117649000D03*
X161034000Y-119299000D03*
X158082000Y-117649000D03*
X158082000Y-119299000D03*
D18*
X135460000Y-122172000D03*
D19*
X129160000Y-119872000D03*
D18*
X135460000Y-119872000D03*
X135460000Y-117572000D03*
D20*
X124900000Y-117801500D03*
D21*
X124900000Y-120152500D03*
D20*
X140692000Y-117649500D03*
D21*
X140692000Y-120000500D03*
D20*
X135500000Y-114100000D03*
D21*
X135500000Y-111749000D03*
D11*
X140692000Y-122145000D03*
X140692000Y-123695000D03*
D14*
X163986000Y-123159000D03*
X163986000Y-121409000D03*
D11*
X133500000Y-93625000D03*
X133500000Y-95175000D03*
D13*
X119925000Y-82900000D03*
X121475000Y-82900000D03*
D11*
X132886574Y-85726899D03*
X132886574Y-87276899D03*
X131606000Y-97955000D03*
X131606000Y-99505000D03*
D13*
X121194427Y-105601671D03*
X119644427Y-105601671D03*
D12*
X121448426Y-97996625D03*
X119898426Y-97996625D03*
D10*
X117800000Y-94775000D03*
X117800000Y-93225000D03*
D11*
X135000000Y-99625000D03*
X135000000Y-101175000D03*
D12*
X128063000Y-97968000D03*
X126513000Y-97968000D03*
D22*
X121593159Y-96128210D03*
X122093159Y-96128210D03*
X122593159Y-96128210D03*
X123093159Y-96128210D03*
X123593159Y-96128210D03*
X124093159Y-96128210D03*
X124593159Y-96128210D03*
X125093159Y-96128210D03*
X125593159Y-96128210D03*
X126093159Y-96128210D03*
X126593159Y-96128210D03*
X127093159Y-96128210D03*
X127593159Y-96128210D03*
X128093159Y-96128210D03*
X128593159Y-96128210D03*
X129093159Y-96128210D03*
D23*
X131018159Y-94203210D03*
X131018159Y-93703210D03*
X131018159Y-93203210D03*
X131018159Y-92703210D03*
X131018159Y-92203210D03*
X131018159Y-91703210D03*
X131018159Y-91203210D03*
X131018159Y-90703210D03*
X131018159Y-90203210D03*
X131018159Y-89703210D03*
X131018159Y-89203210D03*
X131018159Y-88703210D03*
X131018159Y-88203210D03*
X131018159Y-87703210D03*
X131018159Y-87203210D03*
X131018159Y-86703210D03*
D22*
X129093159Y-84778210D03*
X128593159Y-84778210D03*
X128093159Y-84778210D03*
X127593159Y-84778210D03*
X127093159Y-84778210D03*
X126593159Y-84778210D03*
X126093159Y-84778210D03*
X125593159Y-84778210D03*
X125093159Y-84778210D03*
X124593159Y-84778210D03*
X124093159Y-84778210D03*
X123593159Y-84778210D03*
X123093159Y-84778210D03*
X122593159Y-84778210D03*
X122093159Y-84778210D03*
X121593159Y-84778210D03*
D23*
X119668159Y-86703210D03*
X119668159Y-87203210D03*
X119668159Y-87703210D03*
X119668159Y-88203210D03*
X119668159Y-88703210D03*
X119668159Y-89203210D03*
X119668159Y-89703210D03*
X119668159Y-90203210D03*
X119668159Y-90703210D03*
X119668159Y-91203210D03*
X119668159Y-91703210D03*
X119668159Y-92203210D03*
X119668159Y-92703210D03*
X119668159Y-93203210D03*
X119668159Y-93703210D03*
X119668159Y-94203210D03*
D24*
X150480000Y-98222000D03*
X150480000Y-96952000D03*
X150480000Y-95682000D03*
X150480000Y-94412000D03*
X150480000Y-93142000D03*
X150480000Y-91872000D03*
X150480000Y-90602000D03*
X150480000Y-89332000D03*
X150480000Y-88062000D03*
X141180000Y-88062000D03*
X141180000Y-89332000D03*
X141180000Y-90602000D03*
X141180000Y-91872000D03*
X141180000Y-93142000D03*
X141180000Y-94412000D03*
X141180000Y-95682000D03*
X141180000Y-96952000D03*
X141180000Y-98222000D03*
D25*
X110850000Y-85450000D03*
X110850000Y-84500000D03*
X110850000Y-83550000D03*
X108150000Y-83550000D03*
X108150000Y-84500000D03*
X108150000Y-85450000D03*
D26*
X114050000Y-98250000D03*
X113100000Y-98250000D03*
X112150000Y-98250000D03*
X112150000Y-100950000D03*
X113100000Y-100950000D03*
X114050000Y-100950000D03*
D27*
X133384000Y-97968000D03*
X134959000Y-97968000D03*
X151628500Y-113012000D03*
X153203500Y-113012000D03*
D28*
X101500000Y-81300000D03*
D29*
X104200000Y-87300000D03*
D28*
X101500000Y-88300000D03*
D29*
X104200000Y-82300000D03*
D30*
X104200000Y-83500000D03*
X104200000Y-84150000D03*
X104200000Y-84800000D03*
X104200000Y-85450000D03*
X104200000Y-86100000D03*
D31*
X101500000Y-87700000D03*
X101500000Y-81900000D03*
D32*
X101500000Y-83800000D03*
X101500000Y-85800000D03*
D33*
X106798500Y-90900000D03*
D34*
X104447500Y-90900000D03*
D16*
X117120000Y-120397000D03*
X117120000Y-118747000D03*
X111600000Y-120825000D03*
X111600000Y-119175000D03*
D11*
X113836000Y-110677000D03*
X113836000Y-112227000D03*
D35*
X103765000Y-109150001D03*
X111715000Y-109150001D03*
X103765000Y-113650001D03*
X111715000Y-113650001D03*
D36*
X113425000Y-107300000D03*
X111775000Y-107300000D03*
D37*
X101390000Y-110148000D03*
X101390000Y-112648000D03*
D38*
X153749000Y-99645000D03*
X153749000Y-100915000D03*
X153749000Y-102185000D03*
X153749000Y-103455000D03*
X158699000Y-103455000D03*
X158699000Y-102185000D03*
X158699000Y-100915000D03*
X158699000Y-99645000D03*
D39*
X167800000Y-115050000D03*
X167800000Y-116950000D03*
X169800000Y-116000000D03*
D40*
X173800000Y-115900000D03*
X178800000Y-115900000D03*
D41*
X169015000Y-110900000D03*
X175385000Y-110900000D03*
D42*
X120600000Y-73800000D03*
X120600000Y-74700000D03*
X122200000Y-74700000D03*
X122200000Y-73800000D03*
D17*
X113100000Y-76275000D03*
X113100000Y-77925000D03*
X116000000Y-78975000D03*
X116000000Y-80625000D03*
D37*
X166632000Y-91564000D03*
X166632000Y-89064000D03*
X166632000Y-93636000D03*
X166632000Y-96136000D03*
D17*
X164750000Y-91775000D03*
X164750000Y-93425000D03*
D43*
X117550000Y-78800000D03*
X118850000Y-78800000D03*
X118200000Y-76800000D03*
D36*
X119025000Y-73800000D03*
X117375000Y-73800000D03*
D44*
X122175000Y-76000000D03*
X123825000Y-76000000D03*
D43*
X125350000Y-78800000D03*
X126650000Y-78800000D03*
X126000000Y-76800000D03*
D36*
X123825000Y-78800000D03*
X122175000Y-78800000D03*
D17*
X120600000Y-75975000D03*
X120600000Y-77625000D03*
D43*
X114550000Y-75800000D03*
X115850000Y-75800000D03*
X115200000Y-73800000D03*
D20*
X109100000Y-74600000D03*
D21*
X109100000Y-76951000D03*
M02*
