G04 #@! TF.GenerationSoftware,KiCad,Pcbnew,6.0.0-d3dd2cf0fa~116~ubuntu20.04.1*
G04 #@! TF.CreationDate,2022-01-09T15:49:13-07:00*
G04 #@! TF.ProjectId,software_dev_board,736f6674-7761-4726-955f-6465765f626f,A*
G04 #@! TF.SameCoordinates,Original*
G04 #@! TF.FileFunction,Soldermask,Top*
G04 #@! TF.FilePolarity,Negative*
%FSLAX46Y46*%
G04 Gerber Fmt 4.6, Leading zero omitted, Abs format (unit mm)*
G04 Created by KiCad (PCBNEW 6.0.0-d3dd2cf0fa~116~ubuntu20.04.1) date 2022-01-09 15:49:13*
%MOMM*%
%LPD*%
G01*
G04 APERTURE LIST*
G04 Aperture macros list*
%AMRoundRect*
0 Rectangle with rounded corners*
0 $1 Rounding radius*
0 $2 $3 $4 $5 $6 $7 $8 $9 X,Y pos of 4 corners*
0 Add a 4 corners polygon primitive as box body*
4,1,4,$2,$3,$4,$5,$6,$7,$8,$9,$2,$3,0*
0 Add four circle primitives for the rounded corners*
1,1,$1+$1,$2,$3*
1,1,$1+$1,$4,$5*
1,1,$1+$1,$6,$7*
1,1,$1+$1,$8,$9*
0 Add four rect primitives between the rounded corners*
20,1,$1+$1,$2,$3,$4,$5,0*
20,1,$1+$1,$4,$5,$6,$7,0*
20,1,$1+$1,$6,$7,$8,$9,0*
20,1,$1+$1,$8,$9,$2,$3,0*%
G04 Aperture macros list end*
%ADD10C,1.500000*%
%ADD11RoundRect,0.225000X0.250000X-0.225000X0.250000X0.225000X-0.250000X0.225000X-0.250000X-0.225000X0*%
%ADD12RoundRect,0.225000X-0.250000X0.225000X-0.250000X-0.225000X0.250000X-0.225000X0.250000X0.225000X0*%
%ADD13RoundRect,0.225000X0.225000X0.250000X-0.225000X0.250000X-0.225000X-0.250000X0.225000X-0.250000X0*%
%ADD14RoundRect,0.225000X-0.225000X-0.250000X0.225000X-0.250000X0.225000X0.250000X-0.225000X0.250000X0*%
%ADD15RoundRect,0.237500X0.237500X-0.287500X0.237500X0.287500X-0.237500X0.287500X-0.237500X-0.287500X0*%
%ADD16R,2.770000X0.740000*%
%ADD17RoundRect,0.200000X0.275000X-0.200000X0.275000X0.200000X-0.275000X0.200000X-0.275000X-0.200000X0*%
%ADD18RoundRect,0.200000X-0.275000X0.200000X-0.275000X-0.200000X0.275000X-0.200000X0.275000X0.200000X0*%
%ADD19R,2.000000X1.500000*%
%ADD20R,2.000000X3.800000*%
%ADD21R,1.700000X1.700000*%
%ADD22O,1.700000X1.700000*%
%ADD23R,2.540000X2.670000*%
%ADD24R,1.270000X0.762000*%
%ADD25R,1.500000X2.300000*%
%ADD26O,1.500000X2.300000*%
%ADD27RoundRect,0.075000X0.075000X-0.700000X0.075000X0.700000X-0.075000X0.700000X-0.075000X-0.700000X0*%
%ADD28RoundRect,0.075000X0.700000X-0.075000X0.700000X0.075000X-0.700000X0.075000X-0.700000X-0.075000X0*%
%ADD29RoundRect,0.150000X0.875000X0.150000X-0.875000X0.150000X-0.875000X-0.150000X0.875000X-0.150000X0*%
%ADD30C,0.800000*%
%ADD31C,6.400000*%
%ADD32R,1.560000X0.650000*%
%ADD33R,0.650000X1.560000*%
%ADD34RoundRect,0.218750X-0.218750X-0.256250X0.218750X-0.256250X0.218750X0.256250X-0.218750X0.256250X0*%
%ADD35R,1.350000X0.400000*%
%ADD36O,1.550000X0.890000*%
%ADD37O,0.950000X1.250000*%
%ADD38R,1.550000X1.200000*%
%ADD39R,1.550000X1.500000*%
%ADD40R,2.670000X2.540000*%
%ADD41R,0.762000X1.270000*%
%ADD42R,1.550000X1.300000*%
%ADD43RoundRect,0.200000X0.200000X0.275000X-0.200000X0.275000X-0.200000X-0.275000X0.200000X-0.275000X0*%
%ADD44R,1.000000X1.000000*%
%ADD45RoundRect,0.150000X-0.825000X-0.150000X0.825000X-0.150000X0.825000X0.150000X-0.825000X0.150000X0*%
%ADD46C,3.000000*%
%ADD47RoundRect,0.250000X-0.500000X0.500000X-0.500000X-0.500000X0.500000X-0.500000X0.500000X0.500000X0*%
%ADD48R,0.900000X0.800000*%
%ADD49R,3.500000X1.800000*%
%ADD50R,4.240000X3.810000*%
%ADD51R,0.800000X0.550000*%
%ADD52RoundRect,0.250001X-1.599999X1.099999X-1.599999X-1.099999X1.599999X-1.099999X1.599999X1.099999X0*%
%ADD53O,3.700000X2.700000*%
%ADD54R,0.450000X0.700000*%
%ADD55RoundRect,0.200000X-0.200000X-0.275000X0.200000X-0.275000X0.200000X0.275000X-0.200000X0.275000X0*%
%ADD56C,0.600000*%
G04 APERTURE END LIST*
D10*
X134300000Y-104600000D03*
X138700000Y-104600000D03*
X136500000Y-104600000D03*
X140900000Y-104700000D03*
X132100000Y-104600000D03*
D11*
X159984000Y-93917000D03*
X159984000Y-92367000D03*
D12*
X159984000Y-85763000D03*
X159984000Y-87313000D03*
D13*
X126469420Y-105601671D03*
X128019420Y-105601671D03*
D11*
X151398000Y-102325000D03*
X151398000Y-100775000D03*
D14*
X156719000Y-105106000D03*
X158269000Y-105106000D03*
D12*
X139000000Y-98225000D03*
X139000000Y-99775000D03*
X137898000Y-117573000D03*
X137898000Y-119123000D03*
X126800000Y-120425000D03*
X126800000Y-121975000D03*
D14*
X153225000Y-114700000D03*
X154775000Y-114700000D03*
D13*
X151519000Y-114656000D03*
X149969000Y-114656000D03*
D15*
X161034000Y-123159000D03*
X161034000Y-121409000D03*
X158082000Y-123159000D03*
X158082000Y-121409000D03*
D16*
X104468000Y-97560000D03*
X108368000Y-97560000D03*
X104468000Y-98830000D03*
X108368000Y-98830000D03*
X104468000Y-100100000D03*
X108368000Y-100100000D03*
X104468000Y-101370000D03*
X108368000Y-101370000D03*
X104468000Y-102640000D03*
X108368000Y-102640000D03*
D17*
X111490000Y-80625000D03*
X111490000Y-78975000D03*
X111490000Y-76845000D03*
X111490000Y-75195000D03*
D18*
X163986000Y-117649000D03*
X163986000Y-119299000D03*
X161034000Y-117649000D03*
X161034000Y-119299000D03*
X158082000Y-117649000D03*
X158082000Y-119299000D03*
D19*
X135460000Y-122172000D03*
D20*
X129160000Y-119872000D03*
D19*
X135460000Y-119872000D03*
X135460000Y-117572000D03*
D21*
X148400000Y-74200000D03*
D22*
X145860000Y-74200000D03*
X143320000Y-74200000D03*
X140780000Y-74200000D03*
X138240000Y-74200000D03*
X135700000Y-74200000D03*
X133160000Y-74200000D03*
X130620000Y-74200000D03*
X128080000Y-74200000D03*
D23*
X124900000Y-117801500D03*
D24*
X124900000Y-120152500D03*
D23*
X140692000Y-117649500D03*
D24*
X140692000Y-120000500D03*
D23*
X135500000Y-114100000D03*
D24*
X135500000Y-111749000D03*
D10*
X156174000Y-92380000D03*
X156174000Y-87500000D03*
D12*
X140692000Y-122145000D03*
X140692000Y-123695000D03*
D25*
X151760000Y-117958000D03*
D26*
X149220000Y-117958000D03*
X146680000Y-117958000D03*
D15*
X163986000Y-123159000D03*
X163986000Y-121409000D03*
D12*
X133500000Y-93625000D03*
X133500000Y-95175000D03*
D14*
X119925000Y-82900000D03*
X121475000Y-82900000D03*
D12*
X132886574Y-85726899D03*
X132886574Y-87276899D03*
X131606000Y-97955000D03*
X131606000Y-99505000D03*
D14*
X121194427Y-105601671D03*
X119644427Y-105601671D03*
D13*
X121448426Y-97996625D03*
X119898426Y-97996625D03*
D11*
X117800000Y-94775000D03*
X117800000Y-93225000D03*
D12*
X135000000Y-99625000D03*
X135000000Y-101175000D03*
D13*
X128063000Y-97968000D03*
X126513000Y-97968000D03*
D27*
X121593159Y-96128210D03*
X122093159Y-96128210D03*
X122593159Y-96128210D03*
X123093159Y-96128210D03*
X123593159Y-96128210D03*
X124093159Y-96128210D03*
X124593159Y-96128210D03*
X125093159Y-96128210D03*
X125593159Y-96128210D03*
X126093159Y-96128210D03*
X126593159Y-96128210D03*
X127093159Y-96128210D03*
X127593159Y-96128210D03*
X128093159Y-96128210D03*
X128593159Y-96128210D03*
X129093159Y-96128210D03*
D28*
X131018159Y-94203210D03*
X131018159Y-93703210D03*
X131018159Y-93203210D03*
X131018159Y-92703210D03*
X131018159Y-92203210D03*
X131018159Y-91703210D03*
X131018159Y-91203210D03*
X131018159Y-90703210D03*
X131018159Y-90203210D03*
X131018159Y-89703210D03*
X131018159Y-89203210D03*
X131018159Y-88703210D03*
X131018159Y-88203210D03*
X131018159Y-87703210D03*
X131018159Y-87203210D03*
X131018159Y-86703210D03*
D27*
X129093159Y-84778210D03*
X128593159Y-84778210D03*
X128093159Y-84778210D03*
X127593159Y-84778210D03*
X127093159Y-84778210D03*
X126593159Y-84778210D03*
X126093159Y-84778210D03*
X125593159Y-84778210D03*
X125093159Y-84778210D03*
X124593159Y-84778210D03*
X124093159Y-84778210D03*
X123593159Y-84778210D03*
X123093159Y-84778210D03*
X122593159Y-84778210D03*
X122093159Y-84778210D03*
X121593159Y-84778210D03*
D28*
X119668159Y-86703210D03*
X119668159Y-87203210D03*
X119668159Y-87703210D03*
X119668159Y-88203210D03*
X119668159Y-88703210D03*
X119668159Y-89203210D03*
X119668159Y-89703210D03*
X119668159Y-90203210D03*
X119668159Y-90703210D03*
X119668159Y-91203210D03*
X119668159Y-91703210D03*
X119668159Y-92203210D03*
X119668159Y-92703210D03*
X119668159Y-93203210D03*
X119668159Y-93703210D03*
X119668159Y-94203210D03*
D10*
X126326000Y-101777999D03*
X121446000Y-101777999D03*
D29*
X150480000Y-98222000D03*
X150480000Y-96952000D03*
X150480000Y-95682000D03*
X150480000Y-94412000D03*
X150480000Y-93142000D03*
X150480000Y-91872000D03*
X150480000Y-90602000D03*
X150480000Y-89332000D03*
X150480000Y-88062000D03*
X141180000Y-88062000D03*
X141180000Y-89332000D03*
X141180000Y-90602000D03*
X141180000Y-91872000D03*
X141180000Y-93142000D03*
X141180000Y-94412000D03*
X141180000Y-95682000D03*
X141180000Y-96952000D03*
X141180000Y-98222000D03*
D30*
X105697056Y-78097056D03*
X101600000Y-76400000D03*
X105697056Y-74702944D03*
X102302944Y-74702944D03*
D31*
X104000000Y-76400000D03*
D30*
X102302944Y-78097056D03*
X104000000Y-78800000D03*
X106400000Y-76400000D03*
X104000000Y-74000000D03*
D31*
X179000000Y-76400000D03*
D30*
X179000000Y-78800000D03*
X177302944Y-74702944D03*
X180697056Y-78097056D03*
X181400000Y-76400000D03*
X177302944Y-78097056D03*
X180697056Y-74702944D03*
X179000000Y-74000000D03*
X176600000Y-76400000D03*
D32*
X110850000Y-85450000D03*
X110850000Y-84500000D03*
X110850000Y-83550000D03*
X108150000Y-83550000D03*
X108150000Y-84500000D03*
X108150000Y-85450000D03*
D33*
X114050000Y-98250000D03*
X113100000Y-98250000D03*
X112150000Y-98250000D03*
X112150000Y-100950000D03*
X113100000Y-100950000D03*
X114050000Y-100950000D03*
D34*
X133384000Y-97968000D03*
X134959000Y-97968000D03*
X151628500Y-113012000D03*
X153203500Y-113012000D03*
D35*
X104200000Y-83500000D03*
X104200000Y-84150000D03*
X104200000Y-84800000D03*
X104200000Y-85450000D03*
X104200000Y-86100000D03*
D36*
X101500000Y-88300000D03*
D37*
X104200000Y-82300000D03*
D38*
X101500000Y-87700000D03*
X101500000Y-81900000D03*
D37*
X104200000Y-87300000D03*
D39*
X101500000Y-83800000D03*
D36*
X101500000Y-81300000D03*
D39*
X101500000Y-85800000D03*
D30*
X180697056Y-123097056D03*
X180697056Y-119702944D03*
X177302944Y-123097056D03*
X179000000Y-123800000D03*
X176600000Y-121400000D03*
X181400000Y-121400000D03*
X179000000Y-119000000D03*
D31*
X179000000Y-121400000D03*
D30*
X177302944Y-119702944D03*
D40*
X106798500Y-90900000D03*
D41*
X104447500Y-90900000D03*
D21*
X119914000Y-122874000D03*
D22*
X119914000Y-120334000D03*
X119914000Y-117794000D03*
D21*
X114326000Y-122874000D03*
D22*
X114326000Y-120334000D03*
X114326000Y-117794000D03*
D17*
X117120000Y-120397000D03*
X117120000Y-118747000D03*
X111600000Y-120825000D03*
X111600000Y-119175000D03*
D30*
X105697056Y-119702944D03*
X105697056Y-123097056D03*
X102302944Y-123097056D03*
X104000000Y-119000000D03*
X102302944Y-119702944D03*
X104000000Y-123800000D03*
D31*
X104000000Y-121400000D03*
D30*
X101600000Y-121400000D03*
X106400000Y-121400000D03*
D12*
X113836000Y-110677000D03*
X113836000Y-112227000D03*
D42*
X103765000Y-109150001D03*
X111715000Y-109150001D03*
X103765000Y-113650001D03*
X111715000Y-113650001D03*
D43*
X113425000Y-107300000D03*
X111775000Y-107300000D03*
D44*
X101390000Y-110148000D03*
X101390000Y-112648000D03*
D45*
X153749000Y-99645000D03*
X153749000Y-100915000D03*
X153749000Y-102185000D03*
X153749000Y-103455000D03*
X158699000Y-103455000D03*
X158699000Y-102185000D03*
X158699000Y-100915000D03*
X158699000Y-99645000D03*
D46*
X178220000Y-94100000D03*
D47*
X173900000Y-91100000D03*
D10*
X173900000Y-94100000D03*
X173900000Y-97100000D03*
X170900000Y-91100000D03*
X170900000Y-94100000D03*
X170900000Y-97100000D03*
D48*
X167800000Y-115050000D03*
X167800000Y-116950000D03*
X169800000Y-116000000D03*
D49*
X173800000Y-115900000D03*
X178800000Y-115900000D03*
D50*
X169015000Y-110900000D03*
X175385000Y-110900000D03*
D51*
X120600000Y-73800000D03*
X120600000Y-74700000D03*
X122200000Y-74700000D03*
X122200000Y-73800000D03*
D18*
X113100000Y-76275000D03*
X113100000Y-77925000D03*
X116000000Y-78975000D03*
X116000000Y-80625000D03*
D44*
X166632000Y-91564000D03*
X166632000Y-89064000D03*
X166632000Y-93636000D03*
X166632000Y-96136000D03*
D18*
X164750000Y-91775000D03*
X164750000Y-93425000D03*
D10*
X164500000Y-90000000D03*
X164500000Y-95200000D03*
X124600000Y-80800000D03*
D46*
X176200000Y-104600000D03*
D52*
X168900000Y-104600000D03*
D53*
X163400000Y-104600000D03*
D54*
X117550000Y-78800000D03*
X118850000Y-78800000D03*
X118200000Y-76800000D03*
D43*
X119025000Y-73800000D03*
X117375000Y-73800000D03*
D55*
X122175000Y-76000000D03*
X123825000Y-76000000D03*
D54*
X125350000Y-78800000D03*
X126650000Y-78800000D03*
X126000000Y-76800000D03*
D43*
X123825000Y-78800000D03*
X122175000Y-78800000D03*
D18*
X120600000Y-75975000D03*
X120600000Y-77625000D03*
D54*
X114550000Y-75800000D03*
X115850000Y-75800000D03*
X115200000Y-73800000D03*
D23*
X109100000Y-74600000D03*
D24*
X109100000Y-76951000D03*
D56*
X130610000Y-97010000D03*
D30*
X111800000Y-106100000D03*
D56*
X124843159Y-97700000D03*
X155800000Y-115700000D03*
X112200000Y-84500000D03*
X179100000Y-114500000D03*
X125400000Y-98300000D03*
D30*
X168100000Y-96100000D03*
D56*
X177700000Y-117300000D03*
X151400000Y-99700000D03*
X120000000Y-78800000D03*
X156700000Y-106300000D03*
X113100000Y-96800000D03*
X130500000Y-99500000D03*
X137000000Y-122100000D03*
D30*
X168164000Y-89064000D03*
D56*
X179800000Y-117300000D03*
X135500000Y-123500000D03*
X141800000Y-123700000D03*
X117000000Y-75600000D03*
X164000000Y-124400000D03*
D30*
X102400000Y-100100000D03*
D56*
X150000000Y-113400000D03*
X136100000Y-101200000D03*
X180500000Y-117300000D03*
X136200000Y-123500000D03*
X139600000Y-123700000D03*
X180500000Y-114500000D03*
X166800000Y-114700000D03*
X134800000Y-123500000D03*
X118500000Y-105600000D03*
X158100000Y-124400000D03*
X125700000Y-122000000D03*
X133900000Y-101200000D03*
X152300000Y-88100000D03*
X119900000Y-96700000D03*
X177000000Y-114500000D03*
X177000000Y-117300000D03*
X179800000Y-114500000D03*
X178400000Y-117300000D03*
X113900000Y-113400000D03*
X166800000Y-115400000D03*
X127700000Y-78400000D03*
X166800000Y-114000000D03*
X161000000Y-124400000D03*
X160300000Y-99700000D03*
X168200000Y-114000000D03*
X137000000Y-123500000D03*
X178400000Y-114500000D03*
X132700000Y-99500000D03*
X137900000Y-120200000D03*
X103700000Y-115100000D03*
X140700000Y-124700000D03*
X137000000Y-121400000D03*
X129100000Y-105600000D03*
X111700000Y-115200000D03*
X167500000Y-114000000D03*
X134600000Y-94900000D03*
X112800000Y-75200000D03*
X160000000Y-95200000D03*
X137000000Y-122800000D03*
X177700000Y-114500000D03*
X121500000Y-81800000D03*
X179100000Y-117300000D03*
X137900000Y-99800000D03*
D30*
X102400000Y-98800000D03*
D56*
X134100000Y-87300000D03*
X116500000Y-93300000D03*
D30*
X102400000Y-102700000D03*
D56*
X160000000Y-84600000D03*
X161000000Y-116500000D03*
D30*
X147561500Y-106161500D03*
X126700000Y-118000000D03*
X124100000Y-116000000D03*
D56*
X123400000Y-73800000D03*
D30*
X108900000Y-91800000D03*
X123100000Y-117100000D03*
D56*
X107300000Y-73500000D03*
X111000000Y-73500000D03*
X116500000Y-94800000D03*
X119900000Y-81700000D03*
X158100000Y-116500000D03*
X137900000Y-98200000D03*
X134100000Y-85700000D03*
D30*
X126700000Y-118900000D03*
X123100000Y-118000000D03*
X126700000Y-116200000D03*
D56*
X134600000Y-93900000D03*
X136200000Y-99600000D03*
D30*
X123100000Y-118900000D03*
X126700000Y-117100000D03*
X125700000Y-116000000D03*
X113413173Y-106113173D03*
D56*
X158300000Y-106300000D03*
D30*
X123100000Y-116200000D03*
D56*
X136200000Y-98000000D03*
D30*
X108900000Y-90000000D03*
D56*
X122480447Y-83300000D03*
X112900000Y-95700000D03*
X110400000Y-97600000D03*
X112100000Y-102400000D03*
X117996790Y-89703210D03*
D30*
X106244500Y-82344500D03*
X135500000Y-110500000D03*
D56*
X111500000Y-77900000D03*
X137300000Y-95700000D03*
X138330331Y-91869669D03*
X135600000Y-92700000D03*
X138700000Y-94400000D03*
X138500000Y-93100000D03*
X152300000Y-94400000D03*
X136600000Y-89053210D03*
X117100000Y-100300000D03*
X136600000Y-88253207D03*
X152300000Y-93100000D03*
X136600000Y-87453204D03*
X152300000Y-91900000D03*
X152300000Y-97000000D03*
X152300000Y-103400000D03*
X113100000Y-80300000D03*
X115300000Y-89300000D03*
X116100000Y-88600000D03*
X114800000Y-80600000D03*
X121000000Y-78800000D03*
X116900000Y-87900000D03*
X115600000Y-92200000D03*
X115600000Y-101300000D03*
M02*
