M48
; DRILL file {KiCad 6.0.0-d3dd2cf0fa~116~ubuntu20.04.1} date Sun 09 Jan 2022 03:49:27 PM
; FORMAT={-:-/ absolute / metric / decimal}
; #@! TF.CreationDate,2022-01-09T15:49:27-07:00
; #@! TF.GenerationSoftware,Kicad,Pcbnew,6.0.0-d3dd2cf0fa~116~ubuntu20.04.1
; #@! TF.FileFunction,Plated,1,4,PTH
FMAT,2
METRIC
; #@! TA.AperFunction,Plated,PTH,ViaDrill
T1C0.300
; #@! TA.AperFunction,Plated,PTH,ViaDrill
T2C0.400
; #@! TA.AperFunction,Plated,PTH,ComponentDrill
T3C0.500
; #@! TA.AperFunction,Plated,PTH,ComponentDrill
T4C0.550
; #@! TA.AperFunction,Plated,PTH,ComponentDrill
T5C0.800
; #@! TA.AperFunction,Plated,PTH,ComponentDrill
T6C1.000
; #@! TA.AperFunction,Plated,PTH,ComponentDrill
T7C1.020
; #@! TA.AperFunction,Plated,PTH,ComponentDrill
T8C1.800
; #@! TA.AperFunction,Plated,PTH,ComponentDrill
T9C3.200
%
G90
G05
T1
X103.7Y-115.1
X107.3Y-73.5
X110.4Y-97.6
X111.0Y-73.5
X111.5Y-77.9
X111.7Y-115.2
X112.1Y-102.4
X112.2Y-84.5
X112.8Y-75.2
X112.9Y-95.7
X113.1Y-80.3
X113.1Y-96.8
X113.9Y-113.4
X114.8Y-80.6
X115.3Y-89.3
X115.6Y-92.2
X115.6Y-101.3
X116.1Y-88.6
X116.5Y-93.3
X116.5Y-94.8
X116.9Y-87.9
X117.0Y-75.6
X117.1Y-100.3
X117.997Y-89.703
X118.5Y-105.6
X119.9Y-81.7
X119.9Y-96.7
X120.0Y-78.8
X121.0Y-78.8
X121.5Y-81.8
X122.48Y-83.3
X123.4Y-73.8
X124.843Y-97.7
X125.4Y-98.3
X125.7Y-122.0
X127.7Y-78.4
X129.1Y-105.6
X130.5Y-99.5
X130.61Y-97.01
X132.7Y-99.5
X133.9Y-101.2
X134.1Y-85.7
X134.1Y-87.3
X134.6Y-93.9
X134.6Y-94.9
X134.8Y-123.5
X135.5Y-123.5
X135.6Y-92.7
X136.1Y-101.2
X136.2Y-98.0
X136.2Y-99.6
X136.2Y-123.5
X136.6Y-87.453
X136.6Y-88.253
X136.6Y-89.053
X137.0Y-121.4
X137.0Y-122.1
X137.0Y-122.8
X137.0Y-123.5
X137.3Y-95.7
X137.9Y-98.2
X137.9Y-99.8
X137.9Y-120.2
X138.33Y-91.87
X138.5Y-93.1
X138.7Y-94.4
X139.6Y-123.7
X140.7Y-124.7
X141.8Y-123.7
X150.0Y-113.4
X151.4Y-99.7
X152.3Y-88.1
X152.3Y-91.9
X152.3Y-93.1
X152.3Y-94.4
X152.3Y-97.0
X152.3Y-103.4
X155.8Y-115.7
X156.7Y-106.3
X158.1Y-116.5
X158.1Y-124.4
X158.3Y-106.3
X160.0Y-84.6
X160.0Y-95.2
X160.3Y-99.7
X161.0Y-116.5
X161.0Y-124.4
X164.0Y-124.4
X166.8Y-114.0
X166.8Y-114.7
X166.8Y-115.4
X167.5Y-114.0
X168.2Y-114.0
X177.0Y-114.5
X177.0Y-117.3
X177.7Y-114.5
X177.7Y-117.3
X178.4Y-114.5
X178.4Y-117.3
X179.1Y-114.5
X179.1Y-117.3
X179.8Y-114.5
X179.8Y-117.3
X180.5Y-114.5
X180.5Y-117.3
T2
X102.4Y-98.8
X102.4Y-100.1
X102.4Y-102.7
X106.245Y-82.344
X108.9Y-90.0
X108.9Y-91.8
X111.8Y-106.1
X113.413Y-106.113
X123.1Y-116.2
X123.1Y-117.1
X123.1Y-118.0
X123.1Y-118.9
X124.1Y-116.0
X125.7Y-116.0
X126.7Y-116.2
X126.7Y-117.1
X126.7Y-118.0
X126.7Y-118.9
X135.5Y-110.5
X147.561Y-106.161
X168.1Y-96.1
X168.164Y-89.064
T3
X101.6Y-76.4
X101.6Y-121.4
X102.303Y-74.703
X102.303Y-78.097
X102.303Y-119.703
X102.303Y-123.097
X104.0Y-74.0
X104.0Y-78.8
X104.0Y-119.0
X104.0Y-123.8
X105.697Y-74.703
X105.697Y-78.097
X105.697Y-119.703
X105.697Y-123.097
X106.4Y-76.4
X106.4Y-121.4
X176.6Y-76.4
X176.6Y-121.4
X177.303Y-74.703
X177.303Y-78.097
X177.303Y-119.703
X177.303Y-123.097
X179.0Y-74.0
X179.0Y-78.8
X179.0Y-119.0
X179.0Y-123.8
X180.697Y-74.703
X180.697Y-78.097
X180.697Y-119.703
X180.697Y-123.097
X181.4Y-76.4
X181.4Y-121.4
T5
X121.446Y-101.778
X126.326Y-101.778
X156.174Y-87.5
X156.174Y-92.38
T6
X114.326Y-117.794
X114.326Y-120.334
X114.326Y-122.874
X119.914Y-117.794
X119.914Y-120.334
X119.914Y-122.874
X124.6Y-80.8
X128.08Y-74.2
X130.62Y-74.2
X132.1Y-104.6
X133.16Y-74.2
X134.3Y-104.6
X135.7Y-74.2
X136.5Y-104.6
X138.24Y-74.2
X138.7Y-104.6
X140.78Y-74.2
X140.9Y-104.7
X143.32Y-74.2
X145.86Y-74.2
X146.68Y-117.958
X148.4Y-74.2
X149.22Y-117.958
X151.76Y-117.958
X164.5Y-90.0
X164.5Y-95.2
T7
X170.9Y-91.1
X170.9Y-94.1
X170.9Y-97.1
X173.9Y-91.1
X173.9Y-94.1
X173.9Y-97.1
T8
X163.4Y-104.6
X168.9Y-104.6
T9
X104.0Y-76.4
X104.0Y-121.4
X179.0Y-76.4
X179.0Y-121.4
T3
X101.825Y-81.3G85X101.175Y-81.3
G05
X101.825Y-88.3G85X101.175Y-88.3
G05
T4
X104.2Y-82.15G85X104.2Y-82.45
G05
X104.2Y-87.15G85X104.2Y-87.45
G05
T0
M30
