G04 #@! TF.GenerationSoftware,KiCad,Pcbnew,6.0.0-d3dd2cf0fa~116~ubuntu20.04.1*
G04 #@! TF.CreationDate,2022-01-09T15:49:13-07:00*
G04 #@! TF.ProjectId,software_dev_board,736f6674-7761-4726-955f-6465765f626f,A*
G04 #@! TF.SameCoordinates,Original*
G04 #@! TF.FileFunction,Copper,L1,Top*
G04 #@! TF.FilePolarity,Positive*
%FSLAX46Y46*%
G04 Gerber Fmt 4.6, Leading zero omitted, Abs format (unit mm)*
G04 Created by KiCad (PCBNEW 6.0.0-d3dd2cf0fa~116~ubuntu20.04.1) date 2022-01-09 15:49:13*
%MOMM*%
%LPD*%
G01*
G04 APERTURE LIST*
G04 Aperture macros list*
%AMRoundRect*
0 Rectangle with rounded corners*
0 $1 Rounding radius*
0 $2 $3 $4 $5 $6 $7 $8 $9 X,Y pos of 4 corners*
0 Add a 4 corners polygon primitive as box body*
4,1,4,$2,$3,$4,$5,$6,$7,$8,$9,$2,$3,0*
0 Add four circle primitives for the rounded corners*
1,1,$1+$1,$2,$3*
1,1,$1+$1,$4,$5*
1,1,$1+$1,$6,$7*
1,1,$1+$1,$8,$9*
0 Add four rect primitives between the rounded corners*
20,1,$1+$1,$2,$3,$4,$5,0*
20,1,$1+$1,$4,$5,$6,$7,0*
20,1,$1+$1,$6,$7,$8,$9,0*
20,1,$1+$1,$8,$9,$2,$3,0*%
G04 Aperture macros list end*
G04 #@! TA.AperFunction,ComponentPad*
%ADD10C,1.500000*%
G04 #@! TD*
G04 #@! TA.AperFunction,SMDPad,CuDef*
%ADD11RoundRect,0.225000X0.250000X-0.225000X0.250000X0.225000X-0.250000X0.225000X-0.250000X-0.225000X0*%
G04 #@! TD*
G04 #@! TA.AperFunction,SMDPad,CuDef*
%ADD12RoundRect,0.225000X-0.250000X0.225000X-0.250000X-0.225000X0.250000X-0.225000X0.250000X0.225000X0*%
G04 #@! TD*
G04 #@! TA.AperFunction,SMDPad,CuDef*
%ADD13RoundRect,0.225000X0.225000X0.250000X-0.225000X0.250000X-0.225000X-0.250000X0.225000X-0.250000X0*%
G04 #@! TD*
G04 #@! TA.AperFunction,SMDPad,CuDef*
%ADD14RoundRect,0.225000X-0.225000X-0.250000X0.225000X-0.250000X0.225000X0.250000X-0.225000X0.250000X0*%
G04 #@! TD*
G04 #@! TA.AperFunction,SMDPad,CuDef*
%ADD15RoundRect,0.237500X0.237500X-0.287500X0.237500X0.287500X-0.237500X0.287500X-0.237500X-0.287500X0*%
G04 #@! TD*
G04 #@! TA.AperFunction,SMDPad,CuDef*
%ADD16R,2.770000X0.740000*%
G04 #@! TD*
G04 #@! TA.AperFunction,SMDPad,CuDef*
%ADD17RoundRect,0.200000X0.275000X-0.200000X0.275000X0.200000X-0.275000X0.200000X-0.275000X-0.200000X0*%
G04 #@! TD*
G04 #@! TA.AperFunction,SMDPad,CuDef*
%ADD18RoundRect,0.200000X-0.275000X0.200000X-0.275000X-0.200000X0.275000X-0.200000X0.275000X0.200000X0*%
G04 #@! TD*
G04 #@! TA.AperFunction,SMDPad,CuDef*
%ADD19R,2.000000X1.500000*%
G04 #@! TD*
G04 #@! TA.AperFunction,SMDPad,CuDef*
%ADD20R,2.000000X3.800000*%
G04 #@! TD*
G04 #@! TA.AperFunction,ComponentPad*
%ADD21R,1.700000X1.700000*%
G04 #@! TD*
G04 #@! TA.AperFunction,ComponentPad*
%ADD22O,1.700000X1.700000*%
G04 #@! TD*
G04 #@! TA.AperFunction,SMDPad,CuDef*
%ADD23R,2.540000X2.670000*%
G04 #@! TD*
G04 #@! TA.AperFunction,SMDPad,CuDef*
%ADD24R,1.270000X0.762000*%
G04 #@! TD*
G04 #@! TA.AperFunction,ComponentPad*
%ADD25R,1.500000X2.300000*%
G04 #@! TD*
G04 #@! TA.AperFunction,ComponentPad*
%ADD26O,1.500000X2.300000*%
G04 #@! TD*
G04 #@! TA.AperFunction,SMDPad,CuDef*
%ADD27RoundRect,0.075000X0.075000X-0.700000X0.075000X0.700000X-0.075000X0.700000X-0.075000X-0.700000X0*%
G04 #@! TD*
G04 #@! TA.AperFunction,SMDPad,CuDef*
%ADD28RoundRect,0.075000X0.700000X-0.075000X0.700000X0.075000X-0.700000X0.075000X-0.700000X-0.075000X0*%
G04 #@! TD*
G04 #@! TA.AperFunction,SMDPad,CuDef*
%ADD29RoundRect,0.150000X0.875000X0.150000X-0.875000X0.150000X-0.875000X-0.150000X0.875000X-0.150000X0*%
G04 #@! TD*
G04 #@! TA.AperFunction,ComponentPad*
%ADD30C,0.800000*%
G04 #@! TD*
G04 #@! TA.AperFunction,ComponentPad*
%ADD31C,6.400000*%
G04 #@! TD*
G04 #@! TA.AperFunction,SMDPad,CuDef*
%ADD32R,1.560000X0.650000*%
G04 #@! TD*
G04 #@! TA.AperFunction,SMDPad,CuDef*
%ADD33R,0.650000X1.560000*%
G04 #@! TD*
G04 #@! TA.AperFunction,SMDPad,CuDef*
%ADD34RoundRect,0.218750X-0.218750X-0.256250X0.218750X-0.256250X0.218750X0.256250X-0.218750X0.256250X0*%
G04 #@! TD*
G04 #@! TA.AperFunction,SMDPad,CuDef*
%ADD35R,1.350000X0.400000*%
G04 #@! TD*
G04 #@! TA.AperFunction,ComponentPad*
%ADD36O,1.550000X0.890000*%
G04 #@! TD*
G04 #@! TA.AperFunction,ComponentPad*
%ADD37O,0.950000X1.250000*%
G04 #@! TD*
G04 #@! TA.AperFunction,SMDPad,CuDef*
%ADD38R,1.550000X1.200000*%
G04 #@! TD*
G04 #@! TA.AperFunction,SMDPad,CuDef*
%ADD39R,1.550000X1.500000*%
G04 #@! TD*
G04 #@! TA.AperFunction,SMDPad,CuDef*
%ADD40R,2.670000X2.540000*%
G04 #@! TD*
G04 #@! TA.AperFunction,SMDPad,CuDef*
%ADD41R,0.762000X1.270000*%
G04 #@! TD*
G04 #@! TA.AperFunction,SMDPad,CuDef*
%ADD42R,1.550000X1.300000*%
G04 #@! TD*
G04 #@! TA.AperFunction,SMDPad,CuDef*
%ADD43RoundRect,0.200000X0.200000X0.275000X-0.200000X0.275000X-0.200000X-0.275000X0.200000X-0.275000X0*%
G04 #@! TD*
G04 #@! TA.AperFunction,SMDPad,CuDef*
%ADD44R,1.000000X1.000000*%
G04 #@! TD*
G04 #@! TA.AperFunction,SMDPad,CuDef*
%ADD45RoundRect,0.150000X-0.825000X-0.150000X0.825000X-0.150000X0.825000X0.150000X-0.825000X0.150000X0*%
G04 #@! TD*
G04 #@! TA.AperFunction,ComponentPad*
%ADD46RoundRect,0.250000X-0.500000X0.500000X-0.500000X-0.500000X0.500000X-0.500000X0.500000X0.500000X0*%
G04 #@! TD*
G04 #@! TA.AperFunction,SMDPad,CuDef*
%ADD47R,0.900000X0.800000*%
G04 #@! TD*
G04 #@! TA.AperFunction,SMDPad,CuDef*
%ADD48R,3.500000X1.800000*%
G04 #@! TD*
G04 #@! TA.AperFunction,SMDPad,CuDef*
%ADD49R,4.240000X3.810000*%
G04 #@! TD*
G04 #@! TA.AperFunction,SMDPad,CuDef*
%ADD50R,0.800000X0.550000*%
G04 #@! TD*
G04 #@! TA.AperFunction,ComponentPad*
%ADD51RoundRect,0.250001X-1.599999X1.099999X-1.599999X-1.099999X1.599999X-1.099999X1.599999X1.099999X0*%
G04 #@! TD*
G04 #@! TA.AperFunction,ComponentPad*
%ADD52O,3.700000X2.700000*%
G04 #@! TD*
G04 #@! TA.AperFunction,SMDPad,CuDef*
%ADD53R,0.450000X0.700000*%
G04 #@! TD*
G04 #@! TA.AperFunction,SMDPad,CuDef*
%ADD54RoundRect,0.200000X-0.200000X-0.275000X0.200000X-0.275000X0.200000X0.275000X-0.200000X0.275000X0*%
G04 #@! TD*
G04 #@! TA.AperFunction,ViaPad*
%ADD55C,0.600000*%
G04 #@! TD*
G04 #@! TA.AperFunction,ViaPad*
%ADD56C,0.800000*%
G04 #@! TD*
G04 #@! TA.AperFunction,Conductor*
%ADD57C,0.300000*%
G04 #@! TD*
G04 #@! TA.AperFunction,Conductor*
%ADD58C,0.500000*%
G04 #@! TD*
G04 #@! TA.AperFunction,Conductor*
%ADD59C,0.750000*%
G04 #@! TD*
G04 #@! TA.AperFunction,Conductor*
%ADD60C,0.250000*%
G04 #@! TD*
G04 #@! TA.AperFunction,Conductor*
%ADD61C,1.000000*%
G04 #@! TD*
G04 #@! TA.AperFunction,Conductor*
%ADD62C,0.261112*%
G04 #@! TD*
G04 #@! TA.AperFunction,Conductor*
%ADD63C,0.126238*%
G04 #@! TD*
G04 #@! TA.AperFunction,Conductor*
%ADD64C,0.126000*%
G04 #@! TD*
G04 APERTURE END LIST*
D10*
X134300000Y-104600000D03*
X138700000Y-104600000D03*
X136500000Y-104600000D03*
X140900000Y-104700000D03*
X132100000Y-104600000D03*
D11*
X159984000Y-93917000D03*
X159984000Y-92367000D03*
D12*
X159984000Y-85763000D03*
X159984000Y-87313000D03*
D13*
X126469420Y-105601671D03*
X128019420Y-105601671D03*
D11*
X151398000Y-102325000D03*
X151398000Y-100775000D03*
D14*
X156719000Y-105106000D03*
X158269000Y-105106000D03*
D12*
X139000000Y-98225000D03*
X139000000Y-99775000D03*
X137898000Y-117573000D03*
X137898000Y-119123000D03*
X126800000Y-120425000D03*
X126800000Y-121975000D03*
D14*
X153225000Y-114700000D03*
X154775000Y-114700000D03*
D13*
X151519000Y-114656000D03*
X149969000Y-114656000D03*
D15*
X161034000Y-123159000D03*
X161034000Y-121409000D03*
X158082000Y-123159000D03*
X158082000Y-121409000D03*
D16*
X104468000Y-97560000D03*
X108368000Y-97560000D03*
X104468000Y-98830000D03*
X108368000Y-98830000D03*
X104468000Y-100100000D03*
X108368000Y-100100000D03*
X104468000Y-101370000D03*
X108368000Y-101370000D03*
X104468000Y-102640000D03*
X108368000Y-102640000D03*
D17*
X111490000Y-80625000D03*
X111490000Y-78975000D03*
X111490000Y-76845000D03*
X111490000Y-75195000D03*
D18*
X163986000Y-117649000D03*
X163986000Y-119299000D03*
X161034000Y-117649000D03*
X161034000Y-119299000D03*
X158082000Y-117649000D03*
X158082000Y-119299000D03*
D19*
X135460000Y-122172000D03*
D20*
X129160000Y-119872000D03*
D19*
X135460000Y-119872000D03*
X135460000Y-117572000D03*
D21*
X148400000Y-74200000D03*
D22*
X145860000Y-74200000D03*
X143320000Y-74200000D03*
X140780000Y-74200000D03*
X138240000Y-74200000D03*
X135700000Y-74200000D03*
X133160000Y-74200000D03*
X130620000Y-74200000D03*
X128080000Y-74200000D03*
D23*
X124900000Y-117801500D03*
D24*
X124900000Y-120152500D03*
D23*
X140692000Y-117649500D03*
D24*
X140692000Y-120000500D03*
D23*
X135500000Y-114100000D03*
D24*
X135500000Y-111749000D03*
D10*
X156174000Y-92380000D03*
X156174000Y-87500000D03*
D12*
X140692000Y-122145000D03*
X140692000Y-123695000D03*
D25*
X151760000Y-117958000D03*
D26*
X149220000Y-117958000D03*
X146680000Y-117958000D03*
D15*
X163986000Y-123159000D03*
X163986000Y-121409000D03*
D12*
X133500000Y-93625000D03*
X133500000Y-95175000D03*
D14*
X119925000Y-82900000D03*
X121475000Y-82900000D03*
D12*
X132886574Y-85726899D03*
X132886574Y-87276899D03*
X131606000Y-97955000D03*
X131606000Y-99505000D03*
D14*
X121194427Y-105601671D03*
X119644427Y-105601671D03*
D13*
X121448426Y-97996625D03*
X119898426Y-97996625D03*
D11*
X117800000Y-94775000D03*
X117800000Y-93225000D03*
D12*
X135000000Y-99625000D03*
X135000000Y-101175000D03*
D13*
X128063000Y-97968000D03*
X126513000Y-97968000D03*
D27*
X121593159Y-96128210D03*
X122093159Y-96128210D03*
X122593159Y-96128210D03*
X123093159Y-96128210D03*
X123593159Y-96128210D03*
X124093159Y-96128210D03*
X124593159Y-96128210D03*
X125093159Y-96128210D03*
X125593159Y-96128210D03*
X126093159Y-96128210D03*
X126593159Y-96128210D03*
X127093159Y-96128210D03*
X127593159Y-96128210D03*
X128093159Y-96128210D03*
X128593159Y-96128210D03*
X129093159Y-96128210D03*
D28*
X131018159Y-94203210D03*
X131018159Y-93703210D03*
X131018159Y-93203210D03*
X131018159Y-92703210D03*
X131018159Y-92203210D03*
X131018159Y-91703210D03*
X131018159Y-91203210D03*
X131018159Y-90703210D03*
X131018159Y-90203210D03*
X131018159Y-89703210D03*
X131018159Y-89203210D03*
X131018159Y-88703210D03*
X131018159Y-88203210D03*
X131018159Y-87703210D03*
X131018159Y-87203210D03*
X131018159Y-86703210D03*
D27*
X129093159Y-84778210D03*
X128593159Y-84778210D03*
X128093159Y-84778210D03*
X127593159Y-84778210D03*
X127093159Y-84778210D03*
X126593159Y-84778210D03*
X126093159Y-84778210D03*
X125593159Y-84778210D03*
X125093159Y-84778210D03*
X124593159Y-84778210D03*
X124093159Y-84778210D03*
X123593159Y-84778210D03*
X123093159Y-84778210D03*
X122593159Y-84778210D03*
X122093159Y-84778210D03*
X121593159Y-84778210D03*
D28*
X119668159Y-86703210D03*
X119668159Y-87203210D03*
X119668159Y-87703210D03*
X119668159Y-88203210D03*
X119668159Y-88703210D03*
X119668159Y-89203210D03*
X119668159Y-89703210D03*
X119668159Y-90203210D03*
X119668159Y-90703210D03*
X119668159Y-91203210D03*
X119668159Y-91703210D03*
X119668159Y-92203210D03*
X119668159Y-92703210D03*
X119668159Y-93203210D03*
X119668159Y-93703210D03*
X119668159Y-94203210D03*
D10*
X126326000Y-101777999D03*
X121446000Y-101777999D03*
D29*
X150480000Y-98222000D03*
X150480000Y-96952000D03*
X150480000Y-95682000D03*
X150480000Y-94412000D03*
X150480000Y-93142000D03*
X150480000Y-91872000D03*
X150480000Y-90602000D03*
X150480000Y-89332000D03*
X150480000Y-88062000D03*
X141180000Y-88062000D03*
X141180000Y-89332000D03*
X141180000Y-90602000D03*
X141180000Y-91872000D03*
X141180000Y-93142000D03*
X141180000Y-94412000D03*
X141180000Y-95682000D03*
X141180000Y-96952000D03*
X141180000Y-98222000D03*
D30*
X105697056Y-78097056D03*
X101600000Y-76400000D03*
X105697056Y-74702944D03*
X102302944Y-74702944D03*
D31*
X104000000Y-76400000D03*
D30*
X102302944Y-78097056D03*
X104000000Y-78800000D03*
X106400000Y-76400000D03*
X104000000Y-74000000D03*
D31*
X179000000Y-76400000D03*
D30*
X179000000Y-78800000D03*
X177302944Y-74702944D03*
X180697056Y-78097056D03*
X181400000Y-76400000D03*
X177302944Y-78097056D03*
X180697056Y-74702944D03*
X179000000Y-74000000D03*
X176600000Y-76400000D03*
D32*
X110850000Y-85450000D03*
X110850000Y-84500000D03*
X110850000Y-83550000D03*
X108150000Y-83550000D03*
X108150000Y-84500000D03*
X108150000Y-85450000D03*
D33*
X114050000Y-98250000D03*
X113100000Y-98250000D03*
X112150000Y-98250000D03*
X112150000Y-100950000D03*
X113100000Y-100950000D03*
X114050000Y-100950000D03*
D34*
X133384000Y-97968000D03*
X134959000Y-97968000D03*
X151628500Y-113012000D03*
X153203500Y-113012000D03*
D35*
X104200000Y-83500000D03*
X104200000Y-84150000D03*
X104200000Y-84800000D03*
X104200000Y-85450000D03*
X104200000Y-86100000D03*
D36*
X101500000Y-88300000D03*
D37*
X104200000Y-82300000D03*
D38*
X101500000Y-87700000D03*
X101500000Y-81900000D03*
D37*
X104200000Y-87300000D03*
D39*
X101500000Y-83800000D03*
D36*
X101500000Y-81300000D03*
D39*
X101500000Y-85800000D03*
D30*
X180697056Y-123097056D03*
X180697056Y-119702944D03*
X177302944Y-123097056D03*
X179000000Y-123800000D03*
X176600000Y-121400000D03*
X181400000Y-121400000D03*
X179000000Y-119000000D03*
D31*
X179000000Y-121400000D03*
D30*
X177302944Y-119702944D03*
D40*
X106798500Y-90900000D03*
D41*
X104447500Y-90900000D03*
D21*
X119914000Y-122874000D03*
D22*
X119914000Y-120334000D03*
X119914000Y-117794000D03*
D21*
X114326000Y-122874000D03*
D22*
X114326000Y-120334000D03*
X114326000Y-117794000D03*
D17*
X117120000Y-120397000D03*
X117120000Y-118747000D03*
X111600000Y-120825000D03*
X111600000Y-119175000D03*
D30*
X105697056Y-119702944D03*
X105697056Y-123097056D03*
X102302944Y-123097056D03*
X104000000Y-119000000D03*
X102302944Y-119702944D03*
X104000000Y-123800000D03*
D31*
X104000000Y-121400000D03*
D30*
X101600000Y-121400000D03*
X106400000Y-121400000D03*
D12*
X113836000Y-110677000D03*
X113836000Y-112227000D03*
D42*
X103765000Y-109150001D03*
X111715000Y-109150001D03*
X103765000Y-113650001D03*
X111715000Y-113650001D03*
D43*
X113425000Y-107300000D03*
X111775000Y-107300000D03*
D44*
X101390000Y-110148000D03*
X101390000Y-112648000D03*
D45*
X153749000Y-99645000D03*
X153749000Y-100915000D03*
X153749000Y-102185000D03*
X153749000Y-103455000D03*
X158699000Y-103455000D03*
X158699000Y-102185000D03*
X158699000Y-100915000D03*
X158699000Y-99645000D03*
D46*
X173900000Y-91100000D03*
D10*
X173900000Y-94100000D03*
X173900000Y-97100000D03*
X170900000Y-91100000D03*
X170900000Y-94100000D03*
X170900000Y-97100000D03*
D47*
X167800000Y-115050000D03*
X167800000Y-116950000D03*
X169800000Y-116000000D03*
D48*
X173800000Y-115900000D03*
X178800000Y-115900000D03*
D49*
X169015000Y-110900000D03*
X175385000Y-110900000D03*
D50*
X120600000Y-73800000D03*
X120600000Y-74700000D03*
X122200000Y-74700000D03*
X122200000Y-73800000D03*
D18*
X113100000Y-76275000D03*
X113100000Y-77925000D03*
X116000000Y-78975000D03*
X116000000Y-80625000D03*
D44*
X166632000Y-91564000D03*
X166632000Y-89064000D03*
X166632000Y-93636000D03*
X166632000Y-96136000D03*
D18*
X164750000Y-91775000D03*
X164750000Y-93425000D03*
D10*
X164500000Y-90000000D03*
X164500000Y-95200000D03*
X124600000Y-80800000D03*
D51*
X168900000Y-104600000D03*
D52*
X163400000Y-104600000D03*
D53*
X117550000Y-78800000D03*
X118850000Y-78800000D03*
X118200000Y-76800000D03*
D43*
X119025000Y-73800000D03*
X117375000Y-73800000D03*
D54*
X122175000Y-76000000D03*
X123825000Y-76000000D03*
D53*
X125350000Y-78800000D03*
X126650000Y-78800000D03*
X126000000Y-76800000D03*
D43*
X123825000Y-78800000D03*
X122175000Y-78800000D03*
D18*
X120600000Y-75975000D03*
X120600000Y-77625000D03*
D53*
X114550000Y-75800000D03*
X115850000Y-75800000D03*
X115200000Y-73800000D03*
D23*
X109100000Y-74600000D03*
D24*
X109100000Y-76951000D03*
D55*
X130610000Y-97010000D03*
D56*
X111800000Y-106100000D03*
D55*
X124843159Y-97700000D03*
X155800000Y-115700000D03*
X112200000Y-84500000D03*
X179100000Y-114500000D03*
X125400000Y-98300000D03*
D56*
X168100000Y-96100000D03*
D55*
X177700000Y-117300000D03*
X151400000Y-99700000D03*
X120000000Y-78800000D03*
X156700000Y-106300000D03*
X113100000Y-96800000D03*
X130500000Y-99500000D03*
X137000000Y-122100000D03*
D56*
X168164000Y-89064000D03*
D55*
X179800000Y-117300000D03*
X135500000Y-123500000D03*
X141800000Y-123700000D03*
X117000000Y-75600000D03*
X164000000Y-124400000D03*
D56*
X102400000Y-100100000D03*
D55*
X150000000Y-113400000D03*
X136100000Y-101200000D03*
X180500000Y-117300000D03*
X136200000Y-123500000D03*
X139600000Y-123700000D03*
X180500000Y-114500000D03*
X166800000Y-114700000D03*
X134800000Y-123500000D03*
X118500000Y-105600000D03*
X158100000Y-124400000D03*
X125700000Y-122000000D03*
X133900000Y-101200000D03*
X152300000Y-88100000D03*
X119900000Y-96700000D03*
X177000000Y-114500000D03*
X177000000Y-117300000D03*
X179800000Y-114500000D03*
X178400000Y-117300000D03*
X113900000Y-113400000D03*
X166800000Y-115400000D03*
X127700000Y-78400000D03*
X166800000Y-114000000D03*
X161000000Y-124400000D03*
X160300000Y-99700000D03*
X168200000Y-114000000D03*
X137000000Y-123500000D03*
X178400000Y-114500000D03*
X132700000Y-99500000D03*
X137900000Y-120200000D03*
X103700000Y-115100000D03*
X140700000Y-124700000D03*
X137000000Y-121400000D03*
X129100000Y-105600000D03*
X111700000Y-115200000D03*
X167500000Y-114000000D03*
X134600000Y-94900000D03*
X112800000Y-75200000D03*
X160000000Y-95200000D03*
X137000000Y-122800000D03*
X177700000Y-114500000D03*
X121500000Y-81800000D03*
X179100000Y-117300000D03*
X137900000Y-99800000D03*
D56*
X102400000Y-98800000D03*
D55*
X134100000Y-87300000D03*
X116500000Y-93300000D03*
D56*
X102400000Y-102700000D03*
D55*
X160000000Y-84600000D03*
X161000000Y-116500000D03*
D56*
X147561500Y-106161500D03*
X126700000Y-118000000D03*
X124100000Y-116000000D03*
D55*
X123400000Y-73800000D03*
D56*
X108900000Y-91800000D03*
X123100000Y-117100000D03*
D55*
X107300000Y-73500000D03*
X111000000Y-73500000D03*
X116500000Y-94800000D03*
X119900000Y-81700000D03*
X158100000Y-116500000D03*
X137900000Y-98200000D03*
X134100000Y-85700000D03*
D56*
X126700000Y-118900000D03*
X123100000Y-118000000D03*
X126700000Y-116200000D03*
D55*
X134600000Y-93900000D03*
X136200000Y-99600000D03*
D56*
X123100000Y-118900000D03*
X126700000Y-117100000D03*
X125700000Y-116000000D03*
X113413173Y-106113173D03*
D55*
X158300000Y-106300000D03*
D56*
X123100000Y-116200000D03*
D55*
X136200000Y-98000000D03*
D56*
X108900000Y-90000000D03*
D55*
X122480447Y-83300000D03*
X112900000Y-95700000D03*
X110400000Y-97600000D03*
X112100000Y-102400000D03*
X117996790Y-89703210D03*
D56*
X106244500Y-82344500D03*
X135500000Y-110500000D03*
D55*
X111500000Y-77900000D03*
X137300000Y-95700000D03*
X138330331Y-91869669D03*
X135600000Y-92700000D03*
X138700000Y-94400000D03*
X138500000Y-93100000D03*
X152300000Y-94400000D03*
X136600000Y-89053210D03*
X117100000Y-100300000D03*
X136600000Y-88253207D03*
X152300000Y-93100000D03*
X136600000Y-87453204D03*
X152300000Y-91900000D03*
X152300000Y-97000000D03*
X152300000Y-103400000D03*
X113100000Y-80300000D03*
X115300000Y-89300000D03*
X116100000Y-88600000D03*
X114800000Y-80600000D03*
X121000000Y-78800000D03*
X116900000Y-87900000D03*
X115600000Y-92200000D03*
X115600000Y-101300000D03*
D57*
X113836000Y-110677000D02*
X113241999Y-110677000D01*
X130668000Y-96952000D02*
X130610000Y-97010000D01*
X101390000Y-110148000D02*
X102767000Y-110148000D01*
X141180000Y-96952000D02*
X130668000Y-96952000D01*
X103765000Y-109150000D02*
X111715000Y-109150000D01*
X111725000Y-107200001D02*
X111725000Y-109140000D01*
X124593159Y-96128210D02*
X124593159Y-97450000D01*
X108368000Y-104547001D02*
X103765000Y-109150001D01*
X113241999Y-110677000D02*
X111715000Y-109150001D01*
X108368000Y-102640000D02*
X108368000Y-104547001D01*
X124593159Y-97450000D02*
X124843159Y-97700000D01*
X111775000Y-106125000D02*
X111800000Y-106100000D01*
X111725000Y-109140000D02*
X111715000Y-109150000D01*
X102767000Y-110148000D02*
X103765000Y-109150000D01*
X111775000Y-107300000D02*
X111775000Y-106125000D01*
X132028210Y-93703210D02*
X133500000Y-95175000D01*
X118850000Y-78800000D02*
X120000000Y-78800000D01*
X126513000Y-97968000D02*
X127093159Y-97387841D01*
D58*
X149969000Y-113431000D02*
X150000000Y-113400000D01*
D57*
X131018159Y-93703210D02*
X132028210Y-93703210D01*
D58*
X151398000Y-100775000D02*
X153609000Y-100775000D01*
D57*
X163986000Y-124386000D02*
X164000000Y-124400000D01*
D58*
X135000000Y-101175000D02*
X136075000Y-101175000D01*
X131601000Y-99500000D02*
X131606000Y-99505000D01*
X154800000Y-114700000D02*
X155800000Y-115700000D01*
D57*
X113836000Y-112227000D02*
X113138000Y-112227001D01*
X158699000Y-99645000D02*
X160245000Y-99645000D01*
X116800000Y-75800000D02*
X117000000Y-75600000D01*
D58*
X132695000Y-99505000D02*
X132700000Y-99500000D01*
D57*
X111490000Y-75195000D02*
X112695000Y-75195000D01*
D58*
X137900000Y-119125000D02*
X137898000Y-119123000D01*
D57*
X118278210Y-93703210D02*
X117800000Y-93225000D01*
X158082000Y-123159000D02*
X158082000Y-124382000D01*
X168064000Y-96136000D02*
X168100000Y-96100000D01*
D58*
X151398000Y-99702000D02*
X151400000Y-99700000D01*
D57*
X150480000Y-88062000D02*
X152262000Y-88062000D01*
D59*
X149220000Y-115405000D02*
X149969000Y-114656000D01*
D57*
X102762999Y-112648000D02*
X103765000Y-113650001D01*
X113836000Y-112227000D02*
X113836000Y-113336000D01*
X159984000Y-85763000D02*
X159984000Y-84616000D01*
X126800000Y-121975000D02*
X125725000Y-121975000D01*
D58*
X130500000Y-99500000D02*
X131601000Y-99500000D01*
D57*
X101390000Y-112648000D02*
X102762999Y-112648000D01*
X161034000Y-123159000D02*
X161034000Y-124366000D01*
X152262000Y-88062000D02*
X152300000Y-88100000D01*
D58*
X136075000Y-101175000D02*
X136100000Y-101200000D01*
D57*
X132812885Y-87203210D02*
X132886574Y-87276899D01*
X158082000Y-124382000D02*
X158100000Y-124400000D01*
X113100000Y-98250000D02*
X113100000Y-96900000D01*
D58*
X101500000Y-85800000D02*
X101500000Y-87700000D01*
D57*
X128019420Y-105601671D02*
X129098329Y-105601671D01*
X159984000Y-93917000D02*
X159984000Y-95184000D01*
D58*
X139600000Y-123700000D02*
X141800000Y-123700000D01*
D57*
X166632000Y-96136000D02*
X168064000Y-96136000D01*
X121475000Y-81825000D02*
X121500000Y-81800000D01*
X112795000Y-75195000D02*
X112800000Y-75200000D01*
X117800000Y-93225000D02*
X116575000Y-93225000D01*
X139000000Y-99775000D02*
X137925000Y-99775000D01*
X119898426Y-96701574D02*
X119900000Y-96700000D01*
X104468000Y-98830000D02*
X102430000Y-98830000D01*
X113836000Y-113336000D02*
X113900000Y-113400000D01*
X103765000Y-115035000D02*
X103700000Y-115100000D01*
X119644427Y-105601671D02*
X118501671Y-105601671D01*
X110850000Y-84500000D02*
X112200000Y-84500000D01*
D59*
X149220000Y-117958000D02*
X149220000Y-115405000D01*
D57*
X115850000Y-75800000D02*
X116800000Y-75800000D01*
X113138000Y-112227001D02*
X111715000Y-113650001D01*
X166632000Y-89064000D02*
X168164000Y-89064000D01*
D58*
X153609000Y-100775000D02*
X153749000Y-100915000D01*
D57*
X131018159Y-87203210D02*
X132812885Y-87203210D01*
X119898426Y-97996625D02*
X119898426Y-96701574D01*
X102430000Y-98830000D02*
X102400000Y-98800000D01*
X126513000Y-97968000D02*
X125732000Y-97968000D01*
X134325000Y-95175000D02*
X134600000Y-94900000D01*
X121475000Y-83256555D02*
X121475000Y-82900000D01*
X126650000Y-78800000D02*
X127300000Y-78800000D01*
X125732000Y-97968000D02*
X125400000Y-98300000D01*
X133500000Y-95175000D02*
X134325000Y-95175000D01*
D58*
X151398000Y-100775000D02*
X151398000Y-99702000D01*
D57*
X127300000Y-78800000D02*
X127700000Y-78400000D01*
X163986000Y-123159000D02*
X163986000Y-124386000D01*
D58*
X154775000Y-114700000D02*
X154800000Y-114700000D01*
X133900000Y-101200000D02*
X134975000Y-101200000D01*
D57*
X160245000Y-99645000D02*
X160300000Y-99700000D01*
D58*
X137900000Y-120200000D02*
X137900000Y-119125000D01*
D57*
X111700000Y-115200000D02*
X111700000Y-113665001D01*
X129098329Y-105601671D02*
X129100000Y-105600000D01*
D58*
X149969000Y-114656000D02*
X149969000Y-113431000D01*
X101500000Y-83800000D02*
X101500000Y-81900000D01*
D57*
X104468000Y-100100000D02*
X102400000Y-100100000D01*
X111700000Y-113665001D02*
X111715000Y-113650001D01*
X159984000Y-95184000D02*
X160000000Y-95200000D01*
X127093159Y-97387841D02*
X127093159Y-96128210D01*
X161034000Y-124366000D02*
X161000000Y-124400000D01*
X122093159Y-83874714D02*
X121475000Y-83256555D01*
X156719000Y-106281000D02*
X156700000Y-106300000D01*
D58*
X140700000Y-124700000D02*
X140700000Y-123703000D01*
X104200000Y-86100000D02*
X104200000Y-87300000D01*
D57*
X102460000Y-102640000D02*
X102400000Y-102700000D01*
D58*
X134975000Y-101200000D02*
X135000000Y-101175000D01*
D57*
X119668159Y-93703210D02*
X118278210Y-93703210D01*
X121475000Y-82900000D02*
X121475000Y-81825000D01*
X125725000Y-121975000D02*
X125700000Y-122000000D01*
X134076899Y-87276899D02*
X134100000Y-87300000D01*
X159984000Y-84616000D02*
X160000000Y-84600000D01*
D58*
X131606000Y-99505000D02*
X132695000Y-99505000D01*
D57*
X137925000Y-99775000D02*
X137900000Y-99800000D01*
X156719000Y-105106000D02*
X156719000Y-106281000D01*
X104468000Y-102640000D02*
X102460000Y-102640000D01*
X132886574Y-87276899D02*
X134076899Y-87276899D01*
X118501671Y-105601671D02*
X118500000Y-105600000D01*
X122093159Y-84778210D02*
X122093159Y-83874714D01*
X103765000Y-113650000D02*
X103765000Y-115035000D01*
D58*
X140700000Y-123703000D02*
X140692000Y-123695000D01*
D57*
X116575000Y-93225000D02*
X116500000Y-93300000D01*
D58*
X147561500Y-106161500D02*
X151398000Y-102325000D01*
D59*
X135500000Y-114100000D02*
X135500000Y-117532000D01*
D58*
X151398000Y-102325000D02*
X153609000Y-102325000D01*
D60*
X153495000Y-102185000D02*
X153495000Y-102247000D01*
D59*
X135537500Y-117649500D02*
X135460000Y-117572000D01*
D57*
X161000000Y-116500000D02*
X161000000Y-117615000D01*
D58*
X140692000Y-117649500D02*
X140692000Y-113031000D01*
D57*
X161000000Y-117615000D02*
X161034000Y-117649000D01*
D59*
X140692000Y-117649500D02*
X135537500Y-117649500D01*
D58*
X140692000Y-113031000D02*
X147561500Y-106161500D01*
D59*
X135500000Y-117532000D02*
X135460000Y-117572000D01*
D58*
X153609000Y-102325000D02*
X153749000Y-102185000D01*
D61*
X106800000Y-90900000D02*
X108000000Y-90900000D01*
D58*
X108100000Y-73500000D02*
X109200000Y-74600000D01*
D61*
X108000000Y-90900000D02*
X108900000Y-91800000D01*
D57*
X121593159Y-84568159D02*
X119925000Y-82900000D01*
X139000000Y-98225000D02*
X141177000Y-98225000D01*
D58*
X111000000Y-73500000D02*
X110200000Y-73500000D01*
D57*
X131910263Y-86703210D02*
X132886574Y-85726899D01*
D60*
X158356500Y-105360000D02*
X158356500Y-103543500D01*
D58*
X135000000Y-99625000D02*
X135000000Y-98009000D01*
D57*
X141177000Y-98225000D02*
X141180000Y-98222000D01*
D58*
X110200000Y-73500000D02*
X109100000Y-74600000D01*
D57*
X158269000Y-106269000D02*
X158300000Y-106300000D01*
X139000000Y-98225000D02*
X137925000Y-98225000D01*
X131018159Y-93203210D02*
X133078210Y-93203210D01*
X158269000Y-105106000D02*
X158269000Y-106269000D01*
X133500000Y-93625000D02*
X134325000Y-93625000D01*
X119925000Y-82900000D02*
X119925000Y-81725000D01*
X118371790Y-94203210D02*
X117800000Y-94775000D01*
D60*
X158356500Y-103543500D02*
X158445000Y-103455000D01*
D61*
X108000000Y-90900000D02*
X108900000Y-90000000D01*
D57*
X116525000Y-94775000D02*
X116500000Y-94800000D01*
X134325000Y-93625000D02*
X134600000Y-93900000D01*
X122200000Y-73800000D02*
X123400000Y-73800000D01*
X113425000Y-107300000D02*
X113425000Y-106125000D01*
X113425000Y-106125000D02*
X113413173Y-106113173D01*
D61*
X108900000Y-90000000D02*
X108900000Y-91800000D01*
D58*
X107300000Y-73500000D02*
X108100000Y-73500000D01*
D57*
X158082000Y-117649000D02*
X158082000Y-116518000D01*
X117800000Y-94775000D02*
X116525000Y-94775000D01*
D58*
X135000000Y-99625000D02*
X136175000Y-99625000D01*
D57*
X136168000Y-97968000D02*
X136200000Y-98000000D01*
X119668159Y-94203210D02*
X118371790Y-94203210D01*
X131018159Y-86703210D02*
X131910263Y-86703210D01*
X133078210Y-93203210D02*
X133500000Y-93625000D01*
X121593159Y-84778210D02*
X121593159Y-84568159D01*
X119925000Y-81725000D02*
X119900000Y-81700000D01*
D59*
X135000000Y-98009000D02*
X134959000Y-97968000D01*
D58*
X134959000Y-97968000D02*
X136168000Y-97968000D01*
D57*
X136175000Y-99625000D02*
X136200000Y-99600000D01*
X158082000Y-116518000D02*
X158100000Y-116500000D01*
X134073101Y-85726899D02*
X134100000Y-85700000D01*
X137925000Y-98225000D02*
X137900000Y-98200000D01*
X132886574Y-85726899D02*
X134073101Y-85726899D01*
D59*
X126225000Y-120425000D02*
X125952500Y-120152500D01*
X135460000Y-119872000D02*
X129160000Y-119872000D01*
X125952500Y-120152500D02*
X124900000Y-120152500D01*
X126800000Y-120425000D02*
X128607000Y-120425000D01*
X128607000Y-120425000D02*
X129160000Y-119872000D01*
X126800000Y-120425000D02*
X126225000Y-120425000D01*
X144637500Y-120000500D02*
X140692000Y-120000500D01*
X146680000Y-117958000D02*
X144637500Y-120000500D01*
X140692000Y-122145000D02*
X140692000Y-120000500D01*
X153203500Y-114678500D02*
X153225000Y-114700000D01*
X160700000Y-113000000D02*
X154200000Y-113000000D01*
X164685000Y-116950000D02*
X164650000Y-116950000D01*
X153215500Y-113000000D02*
X153203500Y-113012000D01*
X153225000Y-113975000D02*
X154200000Y-113000000D01*
X153203500Y-113012000D02*
X153203500Y-114678500D01*
X164685000Y-116950000D02*
X163986000Y-117649000D01*
X153225000Y-114700000D02*
X153225000Y-113975000D01*
X167800000Y-116950000D02*
X164685000Y-116950000D01*
X164650000Y-116950000D02*
X160700000Y-113000000D01*
X154200000Y-113000000D02*
X153215500Y-113000000D01*
D57*
X108368000Y-98886000D02*
X111514000Y-98886000D01*
X111514000Y-98886000D02*
X112150000Y-98250000D01*
X112150000Y-90742880D02*
X116189670Y-86703210D01*
X116189670Y-86703210D02*
X116496790Y-86703210D01*
X112150000Y-98250000D02*
X112150000Y-90742880D01*
X116496790Y-86703210D02*
X119668159Y-86703210D01*
X110400000Y-97600000D02*
X108384000Y-97600000D01*
X114050000Y-96425736D02*
X113324264Y-95700000D01*
X113324264Y-95700000D02*
X112900000Y-95700000D01*
X122593159Y-84778210D02*
X122593159Y-83412712D01*
X122593159Y-83412712D02*
X122480447Y-83300000D01*
X114050000Y-98250000D02*
X114050000Y-96425736D01*
X111300000Y-100100000D02*
X112150000Y-100950000D01*
X112150000Y-102350000D02*
X112100000Y-102400000D01*
X108368000Y-100100000D02*
X111300000Y-100100000D01*
X112150000Y-100950000D02*
X112150000Y-102350000D01*
X117996790Y-89703210D02*
X119668159Y-89703210D01*
X108368000Y-101370000D02*
X110107998Y-101370000D01*
X113029999Y-103050001D02*
X114050000Y-102030000D01*
X116396790Y-87203210D02*
X113859620Y-89740380D01*
X114725001Y-92825001D02*
X114725001Y-100274999D01*
X114050000Y-100950000D02*
X114050000Y-102030000D01*
X110107998Y-101370000D02*
X111787999Y-103050001D01*
X113859620Y-91959620D02*
X114725001Y-92825001D01*
X114725001Y-100274999D02*
X114050000Y-100950000D01*
X113859620Y-89740380D02*
X113859620Y-91959620D01*
X119668159Y-87203210D02*
X116396790Y-87203210D01*
X111787999Y-103050001D02*
X113029999Y-103050001D01*
D59*
X104468000Y-97560000D02*
X104468000Y-90979500D01*
D57*
X108150000Y-83550000D02*
X107650000Y-83550000D01*
D62*
X123575315Y-84760366D02*
X123593159Y-84778210D01*
X105212501Y-84150000D02*
X104200000Y-84150000D01*
X123575315Y-81946995D02*
X123575315Y-84760366D01*
X106707153Y-84242844D02*
X105305345Y-84242844D01*
X111894446Y-82894443D02*
X113242847Y-84242844D01*
X121796164Y-80167844D02*
X123575315Y-81946995D01*
D57*
X107650000Y-83550000D02*
X107524999Y-83424999D01*
D62*
X114828836Y-84242844D02*
X118903836Y-80167844D01*
X113242847Y-84242844D02*
X114828836Y-84242844D01*
X105305345Y-84242844D02*
X105212501Y-84150000D01*
X107524999Y-83424999D02*
X108055554Y-82894443D01*
X108055554Y-82894443D02*
X111894446Y-82894443D01*
X107524999Y-83424999D02*
X106707153Y-84242844D01*
X118903836Y-80167844D02*
X121796164Y-80167844D01*
X111894446Y-86105557D02*
X113292847Y-84707156D01*
X119096164Y-80632156D02*
X121603836Y-80632156D01*
X121603836Y-80632156D02*
X123111003Y-82139323D01*
X118478471Y-82135535D02*
X118507618Y-82075009D01*
D57*
X107650000Y-85450000D02*
X107524999Y-85575001D01*
D62*
X113292847Y-84707156D02*
X115021164Y-84707156D01*
X118326705Y-81561351D02*
X118326705Y-81494172D01*
X107524999Y-85575001D02*
X108055554Y-86105557D01*
X117935901Y-82122274D02*
X117988424Y-82164160D01*
X117875375Y-82093127D02*
X117935901Y-82122274D01*
X105212501Y-84800000D02*
X105305345Y-84707156D01*
X123111003Y-82139323D02*
X123111003Y-84760366D01*
X118370801Y-81687371D02*
X118341654Y-81626845D01*
X105305345Y-84707156D02*
X106657153Y-84707156D01*
X118436586Y-81763793D02*
X118412687Y-81739894D01*
X118507618Y-82075009D02*
X118522567Y-82009515D01*
X104200000Y-84800000D02*
X105212501Y-84800000D01*
X118384064Y-82229944D02*
X118436586Y-82188058D01*
X118370801Y-81368152D02*
X118412688Y-81315631D01*
X118064845Y-82229944D02*
X118125371Y-82259091D01*
X118478471Y-81816316D02*
X118436586Y-81763793D01*
X117809881Y-82078178D02*
X117875375Y-82093127D01*
X118522567Y-81942336D02*
X118507618Y-81876842D01*
X123111003Y-84760366D02*
X123093159Y-84778210D01*
X118507618Y-81876842D02*
X118478471Y-81816316D01*
X118412687Y-81739894D02*
X118370801Y-81687371D01*
X117564160Y-82164160D02*
X117616682Y-82122274D01*
X118190865Y-82274040D02*
X118258044Y-82274040D01*
D57*
X108150000Y-85450000D02*
X107650000Y-85450000D01*
D62*
X118522567Y-82009515D02*
X118522567Y-81942336D01*
X117616682Y-82122274D02*
X117677208Y-82093127D01*
X115021164Y-84707156D02*
X117564160Y-82164160D01*
X118341654Y-81428678D02*
X118370801Y-81368152D01*
X118326705Y-81494172D02*
X118341654Y-81428678D01*
X118436586Y-82188058D02*
X118478471Y-82135535D01*
X118258044Y-82274040D02*
X118323538Y-82259091D01*
X117742702Y-82078178D02*
X117809881Y-82078178D01*
X117988424Y-82164160D02*
X118012322Y-82188058D01*
X118412688Y-81315631D02*
X118518753Y-81209567D01*
X118125371Y-82259091D02*
X118190865Y-82274040D01*
X118012322Y-82188058D02*
X118064845Y-82229944D01*
X106657153Y-84707156D02*
X107524999Y-85575001D01*
X118341654Y-81626845D02*
X118326705Y-81561351D01*
X118518753Y-81209567D02*
X119096164Y-80632156D01*
X118323538Y-82259091D02*
X118384064Y-82229944D01*
X117677208Y-82093127D02*
X117742702Y-82078178D01*
X108055554Y-86105557D02*
X111894446Y-86105557D01*
D63*
X170900000Y-94100000D02*
X169564719Y-92764719D01*
X165760719Y-92764719D02*
X165410281Y-92764719D01*
X167382001Y-93636000D02*
X166632000Y-93636000D01*
X162214719Y-99868229D02*
X160368229Y-101714719D01*
X165410281Y-92764719D02*
X164750000Y-93425000D01*
X162968229Y-92764719D02*
X162214719Y-93518229D01*
D64*
X164750000Y-93425000D02*
X164750000Y-94950000D01*
X164750000Y-94950000D02*
X164500000Y-95200000D01*
D63*
X164750000Y-93425000D02*
X164089719Y-92764719D01*
X160368229Y-101714719D02*
X159169281Y-101714719D01*
X159169281Y-101714719D02*
X158699000Y-102185000D01*
X166632000Y-93636000D02*
X165760719Y-92764719D01*
X164089719Y-92764719D02*
X162968229Y-92764719D01*
X168253282Y-92764719D02*
X167382001Y-93636000D01*
X162214719Y-93518229D02*
X162214719Y-99868229D01*
X169564719Y-92764719D02*
X168253282Y-92764719D01*
X160231771Y-101385281D02*
X159169281Y-101385281D01*
X161885281Y-93381771D02*
X161885281Y-99731771D01*
X167382001Y-91564000D02*
X166632000Y-91564000D01*
X162831771Y-92435281D02*
X161885281Y-93381771D01*
X169564719Y-92435281D02*
X168253282Y-92435281D01*
X166632000Y-91564000D02*
X165760719Y-92435281D01*
X164750000Y-91775000D02*
X164089719Y-92435281D01*
X165410281Y-92435281D02*
X164750000Y-91775000D01*
D64*
X164750000Y-90250000D02*
X164500000Y-90000000D01*
D63*
X165760719Y-92435281D02*
X165410281Y-92435281D01*
X170900000Y-91100000D02*
X169564719Y-92435281D01*
X164089719Y-92435281D02*
X162831771Y-92435281D01*
X159169281Y-101385281D02*
X158699000Y-100915000D01*
D64*
X164750000Y-91775000D02*
X164750000Y-90250000D01*
D63*
X168253282Y-92435281D02*
X167382001Y-91564000D01*
X161885281Y-99731771D02*
X160231771Y-101385281D01*
D57*
X113835000Y-120825000D02*
X114326000Y-120334000D01*
X111600000Y-120825000D02*
X113835000Y-120825000D01*
X119851000Y-120397000D02*
X119914000Y-120334000D01*
X117120000Y-120397000D02*
X119851000Y-120397000D01*
D58*
X135500000Y-110500000D02*
X135500000Y-111749000D01*
X104200000Y-83500000D02*
X105089001Y-83500000D01*
D57*
X106244500Y-82344500D02*
X107900000Y-80689000D01*
X107900000Y-80689000D02*
X111426000Y-80689000D01*
X111426000Y-80689000D02*
X111490000Y-80625000D01*
D58*
X105089001Y-83500000D02*
X106244500Y-82344500D01*
D57*
X111490000Y-76845000D02*
X109206000Y-76845000D01*
X109306000Y-76845000D02*
X109200000Y-76951000D01*
D60*
X111490000Y-78663499D02*
X111490000Y-76932501D01*
D57*
X124593159Y-84778210D02*
X124593159Y-80806841D01*
X124593159Y-80806841D02*
X124600000Y-80800000D01*
X131018159Y-92703210D02*
X134341208Y-92703210D01*
X137319998Y-95682000D02*
X141180000Y-95682000D01*
X134341208Y-92703210D02*
X137319998Y-95682000D01*
X141177669Y-91869669D02*
X141180000Y-91872000D01*
X135103210Y-92203210D02*
X135600000Y-92700000D01*
X131018159Y-92203210D02*
X135103210Y-92203210D01*
X138330331Y-91869669D02*
X141177669Y-91869669D01*
X131018159Y-91703210D02*
X135979210Y-91703210D01*
X138688000Y-94412000D02*
X141180000Y-94412000D01*
X135979210Y-91703210D02*
X138688000Y-94412000D01*
X139158000Y-93142000D02*
X141180000Y-93142000D01*
X131018159Y-91203210D02*
X136603210Y-91203210D01*
X136603210Y-91203210D02*
X138542000Y-93142000D01*
X138542000Y-93142000D02*
X139158000Y-93142000D01*
X131018159Y-89203210D02*
X136450000Y-89203210D01*
X136450000Y-89203210D02*
X136600000Y-89053210D01*
X150492000Y-94400000D02*
X150480000Y-94412000D01*
X152300000Y-94400000D02*
X150492000Y-94400000D01*
X152300000Y-93100000D02*
X150522000Y-93100000D01*
X131018159Y-88703210D02*
X135987998Y-88703210D01*
X136438001Y-88253207D02*
X136600000Y-88253207D01*
X135987998Y-88703210D02*
X136438001Y-88253207D01*
X117120000Y-116180000D02*
X117100000Y-116160000D01*
X117120000Y-118747000D02*
X117120000Y-116180000D01*
X117100000Y-116160000D02*
X117100000Y-100300000D01*
X150522000Y-93100000D02*
X150480000Y-93142000D01*
X152300000Y-91900000D02*
X150508000Y-91900000D01*
X136438001Y-87453204D02*
X136600000Y-87453204D01*
X131018159Y-88203210D02*
X135687995Y-88203210D01*
X150508000Y-91900000D02*
X150480000Y-91872000D01*
X135687995Y-88203210D02*
X136438001Y-87453204D01*
X141078790Y-90703210D02*
X131018159Y-90703210D01*
X141180000Y-90602000D02*
X141078790Y-90703210D01*
X138996790Y-90203210D02*
X139868000Y-89332000D01*
X139868000Y-89332000D02*
X141180000Y-89332000D01*
X131018159Y-90203210D02*
X138996790Y-90203210D01*
X139938000Y-88062000D02*
X141180000Y-88062000D01*
X138296790Y-89703210D02*
X139938000Y-88062000D01*
X131018159Y-89703210D02*
X138296790Y-89703210D01*
X152495000Y-99645000D02*
X153749000Y-99645000D01*
X152000000Y-99150000D02*
X152495000Y-99645000D01*
X152000000Y-98700000D02*
X152000000Y-99150000D01*
X151522000Y-98222000D02*
X152000000Y-98700000D01*
X150480000Y-98222000D02*
X151522000Y-98222000D01*
X152252000Y-96952000D02*
X152300000Y-97000000D01*
X150480000Y-96952000D02*
X152252000Y-96952000D01*
X152300000Y-103400000D02*
X153694000Y-103400000D01*
X153694000Y-103400000D02*
X153749000Y-103455000D01*
X123593159Y-99630840D02*
X121446000Y-101777999D01*
X121194427Y-102029572D02*
X121446000Y-101777999D01*
X123593159Y-96128210D02*
X123593159Y-99630840D01*
X121194427Y-105601671D02*
X121194427Y-102029572D01*
X124093159Y-96128210D02*
X124093159Y-99545158D01*
X124093159Y-99545158D02*
X126326000Y-101777999D01*
X126469420Y-101921419D02*
X126326000Y-101777999D01*
X126469420Y-105601671D02*
X126469420Y-101921419D01*
D59*
X151519000Y-117717000D02*
X151760000Y-117958000D01*
X151628500Y-114546500D02*
X151519000Y-114656000D01*
X151628500Y-113012000D02*
X151628500Y-114546500D01*
X151519000Y-114656000D02*
X151519000Y-117717000D01*
D61*
X169800000Y-116000000D02*
X173700000Y-116000000D01*
X173700000Y-116000000D02*
X173800000Y-115900000D01*
X173800000Y-115900000D02*
X173800000Y-112485000D01*
X173800000Y-112485000D02*
X175385000Y-110900000D01*
D60*
X163986000Y-119386500D02*
X163986000Y-121409000D01*
X161034000Y-119386500D02*
X161034000Y-121409000D01*
X158082000Y-119386500D02*
X158082000Y-121409000D01*
D61*
X168900000Y-110785000D02*
X169015000Y-110900000D01*
X168900000Y-104600000D02*
X168900000Y-110785000D01*
D58*
X175700000Y-92900000D02*
X173900000Y-91100000D01*
X168900000Y-104600000D02*
X170800000Y-104600000D01*
X175700000Y-99700000D02*
X175700000Y-92900000D01*
X170800000Y-104600000D02*
X175700000Y-99700000D01*
D57*
X129800000Y-82900000D02*
X139700000Y-82900000D01*
X129093159Y-84778210D02*
X129093159Y-83606841D01*
X139700000Y-82900000D02*
X148400000Y-74200000D01*
X129093159Y-83606841D02*
X129800000Y-82900000D01*
X138410000Y-81650000D02*
X130250000Y-81650000D01*
X128593159Y-83306841D02*
X128593159Y-84778210D01*
X130250000Y-81650000D02*
X128593159Y-83306841D01*
X145860000Y-74200000D02*
X138410000Y-81650000D01*
X128093159Y-84778210D02*
X128093159Y-83006841D01*
X143320000Y-74200000D02*
X137120000Y-80400000D01*
X130700000Y-80400000D02*
X128093159Y-83006841D01*
X137120000Y-80400000D02*
X130700000Y-80400000D01*
X135830000Y-79150000D02*
X131150000Y-79150000D01*
X140780000Y-74200000D02*
X135830000Y-79150000D01*
X131150000Y-79150000D02*
X127593159Y-82706841D01*
X127593159Y-84778210D02*
X127593159Y-82706841D01*
X138240000Y-74200000D02*
X134540000Y-77900000D01*
X131600000Y-77900000D02*
X127093159Y-82406841D01*
X134540000Y-77900000D02*
X131600000Y-77900000D01*
X127093159Y-84778210D02*
X127093159Y-82406841D01*
X132050000Y-76650000D02*
X126593159Y-82106841D01*
X135700000Y-74200000D02*
X133250000Y-76650000D01*
X126593159Y-84778210D02*
X126593159Y-82106841D01*
X133250000Y-76650000D02*
X132050000Y-76650000D01*
X131960000Y-75940000D02*
X126093159Y-81806841D01*
X133160000Y-74200000D02*
X131960000Y-75400000D01*
X126093159Y-84778210D02*
X126093159Y-81806841D01*
X131960000Y-75400000D02*
X131960000Y-75940000D01*
X125593159Y-84778210D02*
X125593159Y-81506841D01*
X130620000Y-74200000D02*
X130620000Y-76480000D01*
X130620000Y-76480000D02*
X125593159Y-81506841D01*
X117757121Y-88703210D02*
X117160331Y-89300000D01*
X117160331Y-89300000D02*
X115300000Y-89300000D01*
X119668159Y-88703210D02*
X117757121Y-88703210D01*
X113100000Y-77925000D02*
X113100000Y-80300000D01*
X117550001Y-88203210D02*
X117153211Y-88600000D01*
X117153211Y-88600000D02*
X116100000Y-88600000D01*
X114825000Y-80625000D02*
X114800000Y-80600000D01*
X119668159Y-88203210D02*
X117550001Y-88203210D01*
X116000000Y-80625000D02*
X114825000Y-80625000D01*
X122175000Y-78800000D02*
X121000000Y-78800000D01*
X119668159Y-87703210D02*
X117096790Y-87703210D01*
X117096790Y-87703210D02*
X116900000Y-87900000D01*
X128063000Y-97863000D02*
X128063000Y-97968000D01*
D58*
X131619000Y-97968000D02*
X131606000Y-97955000D01*
X131606000Y-97955000D02*
X128076000Y-97955000D01*
D57*
X127593159Y-96128210D02*
X127593159Y-97393159D01*
X127593159Y-97393159D02*
X128063000Y-97863000D01*
D58*
X133384000Y-97968000D02*
X131619000Y-97968000D01*
X128076000Y-97955000D02*
X128063000Y-97968000D01*
D60*
X159883500Y-92380000D02*
X159984000Y-92279500D01*
D57*
X150480000Y-90602000D02*
X154396000Y-90602000D01*
X154396000Y-90602000D02*
X156174000Y-92380000D01*
D60*
X156174000Y-92380000D02*
X159883500Y-92380000D01*
D57*
X121593159Y-97851892D02*
X121448426Y-97996625D01*
X121593159Y-96128210D02*
X121593159Y-97851892D01*
D60*
X156174000Y-87500000D02*
X159884500Y-87500000D01*
D57*
X150480000Y-89332000D02*
X154342000Y-89332000D01*
X154342000Y-89332000D02*
X156174000Y-87500000D01*
D60*
X159884500Y-87500000D02*
X159984000Y-87400500D01*
D57*
X119125000Y-73800000D02*
X120600000Y-73800000D01*
X120600000Y-75975000D02*
X120600000Y-74700000D01*
X122200000Y-75975000D02*
X122200000Y-74700000D01*
X115200000Y-73800000D02*
X117375000Y-73800000D01*
X114075000Y-76275000D02*
X114550000Y-75800000D01*
X113100000Y-76275000D02*
X114075000Y-76275000D01*
X118200000Y-76800000D02*
X119775000Y-76800000D01*
X119775000Y-76800000D02*
X120600000Y-77625000D01*
X116000000Y-78975000D02*
X117375000Y-78975000D01*
X117375000Y-78975000D02*
X117550000Y-78800000D01*
X123825000Y-76000000D02*
X125200000Y-76000000D01*
X125200000Y-76000000D02*
X126000000Y-76800000D01*
X123825000Y-78800000D02*
X125350000Y-78800000D01*
X119668159Y-92203210D02*
X115603210Y-92203210D01*
X111600000Y-118700000D02*
X115600000Y-114700000D01*
X115600000Y-101300000D02*
X115600000Y-114700000D01*
X111600000Y-119175000D02*
X111600000Y-118700000D01*
X115603210Y-92203210D02*
X115600000Y-92200000D01*
G04 #@! TA.AperFunction,Conductor*
G36*
X168212172Y-113702421D02*
G01*
X168290225Y-113717947D01*
X168335642Y-113736759D01*
X168391295Y-113773945D01*
X168426055Y-113808705D01*
X168463241Y-113864358D01*
X168482054Y-113909777D01*
X168497579Y-113987829D01*
X168500000Y-114012410D01*
X168500000Y-115387590D01*
X168497579Y-115412171D01*
X168482054Y-115490223D01*
X168463241Y-115535642D01*
X168426056Y-115591294D01*
X168391295Y-115626055D01*
X168335642Y-115663241D01*
X168290225Y-115682053D01*
X168221876Y-115695649D01*
X168212171Y-115697579D01*
X168187590Y-115700000D01*
X166812410Y-115700000D01*
X166787829Y-115697579D01*
X166778124Y-115695649D01*
X166709775Y-115682053D01*
X166664358Y-115663241D01*
X166608705Y-115626055D01*
X166573944Y-115591294D01*
X166536759Y-115535642D01*
X166517946Y-115490223D01*
X166502421Y-115412171D01*
X166500000Y-115387590D01*
X166500000Y-114012410D01*
X166502421Y-113987829D01*
X166517946Y-113909777D01*
X166536759Y-113864358D01*
X166573945Y-113808705D01*
X166608705Y-113773945D01*
X166664358Y-113736759D01*
X166709775Y-113717947D01*
X166787828Y-113702421D01*
X166812410Y-113700000D01*
X168187590Y-113700000D01*
X168212172Y-113702421D01*
G37*
G04 #@! TD.AperFunction*
G04 #@! TA.AperFunction,Conductor*
G36*
X180512172Y-114202421D02*
G01*
X180590225Y-114217947D01*
X180635642Y-114236759D01*
X180691295Y-114273945D01*
X180726055Y-114308705D01*
X180763241Y-114364358D01*
X180782054Y-114409777D01*
X180797579Y-114487829D01*
X180800000Y-114512410D01*
X180800000Y-117287590D01*
X180797579Y-117312171D01*
X180782054Y-117390223D01*
X180763241Y-117435642D01*
X180726056Y-117491294D01*
X180691295Y-117526055D01*
X180635642Y-117563241D01*
X180590225Y-117582053D01*
X180521876Y-117595649D01*
X180512171Y-117597579D01*
X180487590Y-117600000D01*
X177012410Y-117600000D01*
X176987829Y-117597579D01*
X176978124Y-117595649D01*
X176909775Y-117582053D01*
X176864358Y-117563241D01*
X176808705Y-117526055D01*
X176773944Y-117491294D01*
X176736759Y-117435642D01*
X176717946Y-117390223D01*
X176702421Y-117312171D01*
X176700000Y-117287590D01*
X176700000Y-114512410D01*
X176702421Y-114487829D01*
X176717946Y-114409777D01*
X176736759Y-114364358D01*
X176773945Y-114308705D01*
X176808705Y-114273945D01*
X176864358Y-114236759D01*
X176909775Y-114217947D01*
X176987828Y-114202421D01*
X177012410Y-114200000D01*
X180487590Y-114200000D01*
X180512172Y-114202421D01*
G37*
G04 #@! TD.AperFunction*
G04 #@! TA.AperFunction,Conductor*
G36*
X137012172Y-121102421D02*
G01*
X137090225Y-121117947D01*
X137135642Y-121136759D01*
X137191295Y-121173945D01*
X137226055Y-121208705D01*
X137263241Y-121264358D01*
X137282054Y-121309777D01*
X137297579Y-121387829D01*
X137300000Y-121412410D01*
X137300000Y-123487590D01*
X137297579Y-123512171D01*
X137282054Y-123590223D01*
X137263241Y-123635642D01*
X137226056Y-123691294D01*
X137191295Y-123726055D01*
X137135642Y-123763241D01*
X137090225Y-123782053D01*
X137021876Y-123795649D01*
X137012171Y-123797579D01*
X136987590Y-123800000D01*
X134712410Y-123800000D01*
X134687829Y-123797579D01*
X134678124Y-123795649D01*
X134609775Y-123782053D01*
X134564358Y-123763241D01*
X134508705Y-123726055D01*
X134473944Y-123691294D01*
X134436759Y-123635642D01*
X134417946Y-123590223D01*
X134402421Y-123512171D01*
X134400000Y-123487590D01*
X134400000Y-121412410D01*
X134402421Y-121387829D01*
X134417946Y-121309777D01*
X134436759Y-121264358D01*
X134473945Y-121208705D01*
X134508707Y-121173944D01*
X134541945Y-121151735D01*
X134611947Y-121130500D01*
X136508134Y-121130500D01*
X136511531Y-121130131D01*
X136562466Y-121124598D01*
X136562468Y-121124598D01*
X136570316Y-121123745D01*
X136577709Y-121120973D01*
X136577711Y-121120973D01*
X136612268Y-121108018D01*
X136656497Y-121100000D01*
X136987590Y-121100000D01*
X137012172Y-121102421D01*
G37*
G04 #@! TD.AperFunction*
G04 #@! TA.AperFunction,Conductor*
G36*
X126812172Y-115602421D02*
G01*
X126890225Y-115617947D01*
X126935642Y-115636759D01*
X126991295Y-115673945D01*
X127026055Y-115708705D01*
X127063241Y-115764358D01*
X127082054Y-115809777D01*
X127097579Y-115887829D01*
X127100000Y-115912410D01*
X127100000Y-118987590D01*
X127097579Y-119012171D01*
X127082054Y-119090223D01*
X127063241Y-119135642D01*
X127026056Y-119191294D01*
X126991295Y-119226055D01*
X126935642Y-119263241D01*
X126890225Y-119282053D01*
X126831004Y-119293833D01*
X126812171Y-119297579D01*
X126787590Y-119300000D01*
X126207799Y-119300000D01*
X126168864Y-119293833D01*
X126143483Y-119285586D01*
X126143476Y-119285585D01*
X126137202Y-119283546D01*
X126123872Y-119282145D01*
X126104429Y-119278542D01*
X126091471Y-119275070D01*
X126084881Y-119274725D01*
X126084877Y-119274724D01*
X126040927Y-119272421D01*
X126025128Y-119271593D01*
X126018569Y-119271077D01*
X125998806Y-119269000D01*
X125978945Y-119269000D01*
X125972350Y-119268827D01*
X125912598Y-119265695D01*
X125912594Y-119265695D01*
X125906007Y-119265350D01*
X125892753Y-119267449D01*
X125873044Y-119269000D01*
X125645190Y-119269000D01*
X125631582Y-119268263D01*
X125586531Y-119263369D01*
X125583134Y-119263000D01*
X124216866Y-119263000D01*
X124154684Y-119269755D01*
X124117897Y-119283546D01*
X124095394Y-119291982D01*
X124051164Y-119300000D01*
X123012410Y-119300000D01*
X122987829Y-119297579D01*
X122968996Y-119293833D01*
X122909775Y-119282053D01*
X122864358Y-119263241D01*
X122808705Y-119226055D01*
X122773944Y-119191294D01*
X122736759Y-119135642D01*
X122717946Y-119090223D01*
X122702421Y-119012171D01*
X122700000Y-118987590D01*
X122700000Y-115912410D01*
X122702421Y-115887829D01*
X122717946Y-115809777D01*
X122736759Y-115764358D01*
X122773945Y-115708705D01*
X122808705Y-115673945D01*
X122864358Y-115636759D01*
X122909775Y-115617947D01*
X122987828Y-115602421D01*
X123012410Y-115600000D01*
X126787590Y-115600000D01*
X126812172Y-115602421D01*
G37*
G04 #@! TD.AperFunction*
M02*
